M48
METRIC,LZ,000.000
;FILE_FORMAT=3:3
;TYPE=PLATED
;Layer: PTH_Through
;EasyEDA v6.5.51, 2025-10-07 15:43:34
;065a6221327546c7852400a8f05eee82,a6cf4550276c400b965b925ba5ea59c0,10
;Gerber Generator version 0.2
;Holesize 1 = 0.915 mm
T01C0.915
;Holesize 2 = 1.000 mm
T02C1.000
;Holesize 3 = 1.001 mm
T03C1.001
%
G05
G90
T01
X016129Y-080772
X016129Y-078232
X016129Y-075692
X016129Y-073152
X016129Y-070612
X016129Y-068072
X016129Y-065532
X016129Y-062992
X016129Y-060452
X016129Y-057912
X016129Y-055372
X016129Y-052832
X016129Y-050292
X016129Y-047752
X016129Y-045212
X016129Y-042672
X016129Y-040132
X016129Y-037592
X016129Y-035052
X038989Y-035052
X038989Y-037592
X038989Y-040132
X038989Y-042672
X038989Y-045212
X038989Y-047752
X038989Y-050292
X038989Y-052832
X038989Y-055372
X038989Y-057912
X038989Y-060452
X038989Y-062992
X038989Y-065532
X038989Y-068072
X038989Y-070612
X038989Y-073152
X038989Y-075692
X038989Y-078232
X038989Y-080772
T02
X038100Y-009396
X035560Y-009396
X033020Y-009396
X030480Y-009399
T03
X022606Y-027559
X025146Y-027559
X027686Y-027559
X030226Y-027559
X032766Y-027559
X035306Y-027559
X037846Y-027559
X040386Y-027559
X042926Y-027559
X045466Y-027559
M30
