G04 Layer: TopLayer*
G04 EasyEDA v6.5.51, 2025-10-07 15:43:34*
G04 065a6221327546c7852400a8f05eee82,a6cf4550276c400b965b925ba5ea59c0,10*
G04 Gerber Generator version 0.2*
G04 Scale: 100 percent, Rotated: No, Reflected: No *
G04 Dimensions in millimeters *
G04 leading zeros omitted , absolute positions ,4 integer and 5 decimal *
%FSLAX45Y45*%
%MOMM*%

%AMMACRO1*21,1,$1,$2,0,0,$3*%
%ADD10C,0.5000*%
%ADD11MACRO1,1.701X1.2075X-90.0000*%
%ADD12MACRO1,1.701X1.2075X0.0000*%
%ADD13R,1.7010X1.2075*%
%ADD14C,1.8000*%
%ADD15R,1.8000X1.8000*%
%ADD16C,1.5240*%
%ADD17R,1.3995X1.3995*%
%ADD18C,1.3995*%
%ADD19C,0.0175*%

%LPD*%
D10*
X4940300Y-4465878D02*
G01*
X4906721Y-4499457D01*
X4906721Y-5867400D01*
X5194300Y-5481878D02*
G01*
X5032387Y-5319966D01*
X4906721Y-5319966D01*
X4906721Y-5867400D02*
G01*
X4906721Y-6565900D01*
X2514600Y-2755900D02*
G01*
X2514600Y-7454900D01*
X3302000Y-8242300D01*
X4419600Y-8242300D01*
X4906721Y-7755178D01*
X4906721Y-6565900D01*
X3276600Y-2755900D02*
G01*
X3543300Y-3022600D01*
X3784600Y-3022600D01*
X4699000Y-3937000D01*
X4699000Y-4318000D01*
X4846878Y-4465878D01*
X4940300Y-4465878D01*
X6269278Y-5803900D02*
G01*
X5994400Y-5529021D01*
X5994400Y-5202478D01*
X5973521Y-5803900D02*
G01*
X5702300Y-5532678D01*
X5702300Y-3619500D01*
X4546600Y-2463800D01*
X4394200Y-2463800D01*
X4292600Y-2565400D01*
X4292600Y-2755900D01*
X6261100Y-3830878D02*
G01*
X6261100Y-4935778D01*
X5994400Y-5202478D01*
X3784600Y-2755900D02*
G01*
X3784600Y-2463800D01*
X4076700Y-2171700D01*
X4897678Y-2171700D01*
X6261100Y-3535121D01*
X4546600Y-2755900D02*
G01*
X5562600Y-3771900D01*
X5562600Y-6400800D01*
X5397500Y-6565900D01*
X5202478Y-6565900D01*
X5202478Y-6565900D02*
G01*
X5783026Y-6565900D01*
X5795726Y-6578600D01*
X6091478Y-6578600D02*
G01*
X6136012Y-6578600D01*
X6285636Y-6428976D01*
X2260600Y-7429500D02*
G01*
X1612900Y-8077200D01*
X2260600Y-2755900D02*
G01*
X2260600Y-7429500D01*
X4094708Y-2755900D02*
G01*
X4038600Y-2755900D01*
X2514600Y-2755900D02*
G01*
X2368321Y-2609621D01*
X2158644Y-2609621D01*
X2109952Y-2658313D01*
X2109952Y-6310147D01*
X1612900Y-6807200D01*
X3048000Y-939927D02*
G01*
X3048000Y-1104976D01*
X2514600Y-2755900D02*
G01*
X2514600Y-1638376D01*
X3048000Y-1104976D01*
X3556000Y-939672D02*
G01*
X3556000Y-1968500D01*
X2768600Y-2755900D01*
X1612900Y-3505200D02*
G01*
X1612900Y-2080285D01*
X2918434Y-774750D01*
X3175127Y-774750D01*
X3302000Y-901623D01*
X3302000Y-939672D01*
X3068980Y-2755900D02*
G01*
X3810000Y-2014880D01*
X3810000Y-939672D01*
X3022600Y-2755900D02*
G01*
X3068980Y-2755900D01*
X3068980Y-2755900D02*
G01*
X3470173Y-3157093D01*
X3767480Y-3157093D01*
X4050411Y-3440023D01*
X4050411Y-4623688D01*
X3898900Y-4775200D01*
X3809415Y-2773603D02*
G01*
X3791711Y-2755900D01*
X3784600Y-2755900D01*
X4940300Y-4170121D02*
G01*
X4940300Y-3904487D01*
X3809418Y-2773603D01*
X6285636Y-6578600D02*
G01*
X6285636Y-6693763D01*
X4584700Y-8394700D01*
X3225800Y-8394700D01*
X2260600Y-7429500D01*
X6285631Y-6578600D02*
G01*
X6285631Y-5820252D01*
X6269278Y-5803900D01*
X4038600Y-2755900D02*
G01*
X5194300Y-3911600D01*
X5194300Y-5186121D01*
X4292600Y-2755900D02*
G01*
X5372100Y-3835400D01*
X5372100Y-5803900D01*
X5283200Y-5892800D01*
X5180736Y-5892800D01*
X2768600Y-2755900D02*
G01*
X2768600Y-3136900D01*
X3644900Y-4013200D01*
X3898900Y-4013200D01*
X4038600Y-2755900D02*
G01*
X4038600Y-2463800D01*
X4178300Y-2324100D01*
X4622800Y-2324100D01*
X5994400Y-3695700D01*
X5994400Y-4906721D01*
D11*
G01*
X5795723Y-6578600D03*
G01*
X6091476Y-6578600D03*
D12*
G01*
X6261100Y-3535123D03*
D13*
G01*
X6261100Y-3830878D03*
D12*
G01*
X5994400Y-4906723D03*
D13*
G01*
X5994400Y-5202478D03*
D11*
G01*
X5973523Y-5803900D03*
G01*
X6269276Y-5803900D03*
D12*
G01*
X4940300Y-4465876D03*
D13*
G01*
X4940300Y-4170121D03*
D12*
G01*
X5194300Y-5481876D03*
D13*
G01*
X5194300Y-5186121D03*
D11*
G01*
X4906723Y-5867400D03*
G01*
X5202476Y-5867400D03*
G01*
X4906723Y-6565900D03*
G01*
X5202476Y-6565900D03*
D14*
G01*
X3810000Y-939672D03*
G01*
X3556000Y-939672D03*
G01*
X3302000Y-939672D03*
D15*
G01*
X3048000Y-939927D03*
D16*
G01*
X1612900Y-8077200D03*
G01*
X1612900Y-7823200D03*
G01*
X1612900Y-7569200D03*
G01*
X1612900Y-7315200D03*
G01*
X1612900Y-7061200D03*
G01*
X1612900Y-6807200D03*
G01*
X1612900Y-6553200D03*
G01*
X1612900Y-6299200D03*
G01*
X1612900Y-6045200D03*
G01*
X1612900Y-5791200D03*
G01*
X1612900Y-5537200D03*
G01*
X1612900Y-5283200D03*
G01*
X1612900Y-5029200D03*
G01*
X1612900Y-4775200D03*
G01*
X1612900Y-4521200D03*
G01*
X1612900Y-4267200D03*
G01*
X1612900Y-4013200D03*
G01*
X1612900Y-3759200D03*
G01*
X1612900Y-3505200D03*
G01*
X3898900Y-3505200D03*
G01*
X3898900Y-3759200D03*
G01*
X3898900Y-4013200D03*
G01*
X3898900Y-4267200D03*
G01*
X3898900Y-4521200D03*
G01*
X3898900Y-4775200D03*
G01*
X3898900Y-5029200D03*
G01*
X3898900Y-5283200D03*
G01*
X3898900Y-5537200D03*
G01*
X3898900Y-5791200D03*
G01*
X3898900Y-6045200D03*
G01*
X3898900Y-6299200D03*
G01*
X3898900Y-6553200D03*
G01*
X3898900Y-6807200D03*
G01*
X3898900Y-7061200D03*
G01*
X3898900Y-7315200D03*
G01*
X3898900Y-7569200D03*
G01*
X3898900Y-7823200D03*
G01*
X3898900Y-8077200D03*
D17*
G01*
X2260600Y-2755900D03*
D18*
G01*
X2514600Y-2755900D03*
G01*
X2768600Y-2755900D03*
G01*
X3022600Y-2755900D03*
G01*
X3276600Y-2755900D03*
G01*
X3530600Y-2755900D03*
G01*
X3784600Y-2755900D03*
G01*
X4038600Y-2755900D03*
G01*
X4292600Y-2755900D03*
G01*
X4546600Y-2755900D03*
M02*
