G04 Layer: TopSolderMaskLayer*
G04 EasyEDA v6.5.51, 2025-10-07 15:43:34*
G04 065a6221327546c7852400a8f05eee82,a6cf4550276c400b965b925ba5ea59c0,10*
G04 Gerber Generator version 0.2*
G04 Scale: 100 percent, Rotated: No, Reflected: No *
G04 Dimensions in millimeters *
G04 leading zeros omitted , absolute positions ,4 integer and 5 decimal *
%FSLAX45Y45*%
%MOMM*%

%AMMACRO1*4,1,8,-0.9421,-1.0015,-1.0015,-0.9418,-1.0015,0.9421,-0.9421,1.0015,0.9418,1.0015,1.0015,0.9421,1.0015,-0.9418,0.9418,-1.0015,-0.9421,-1.0015,0*%
%AMMACRO2*4,1,8,-0.7209,-0.7506,-0.7506,-0.7206,-0.7506,0.7209,-0.7209,0.7506,0.7206,0.7506,0.7506,0.7209,0.7506,-0.7206,0.7206,-0.7506,-0.7209,-0.7506,0*%
%AMMACRO3*4,1,8,-0.6248,-0.9012,-0.6546,-0.8712,-0.6546,0.8715,-0.6248,0.9012,0.6246,0.9012,0.6546,0.8715,0.6546,-0.8712,0.6246,-0.9012,-0.6248,-0.9012,0*%
%AMMACRO4*4,1,8,-0.8715,-0.6546,-0.9012,-0.6246,-0.9012,0.6248,-0.8715,0.6546,0.8712,0.6546,0.9012,0.6248,0.9012,-0.6246,0.8712,-0.6546,-0.8715,-0.6546,0*%
%ADD10C,2.0032*%
%ADD11MACRO1*%
%ADD12C,1.6256*%
%ADD13MACRO2*%
%ADD14C,1.5011*%
%ADD15MACRO3*%
%ADD16MACRO4*%
%ADD17C,0.0148*%

%LPD*%
D10*
G01*
X3810000Y-939672D03*
G01*
X3556000Y-939672D03*
G01*
X3302000Y-939672D03*
D11*
G01*
X3048000Y-939926D03*
D12*
G01*
X1612900Y-8077200D03*
G01*
X1612900Y-7823200D03*
G01*
X1612900Y-7569200D03*
G01*
X1612900Y-7315200D03*
G01*
X1612900Y-7061200D03*
G01*
X1612900Y-6807200D03*
G01*
X1612900Y-6553200D03*
G01*
X1612900Y-6299200D03*
G01*
X1612900Y-6045200D03*
G01*
X1612900Y-5791200D03*
G01*
X1612900Y-5537200D03*
G01*
X1612900Y-5283200D03*
G01*
X1612900Y-5029200D03*
G01*
X1612900Y-4775200D03*
G01*
X1612900Y-4521200D03*
G01*
X1612900Y-4267200D03*
G01*
X1612900Y-4013200D03*
G01*
X1612900Y-3759200D03*
G01*
X1612900Y-3505200D03*
G01*
X3898900Y-3505200D03*
G01*
X3898900Y-3759200D03*
G01*
X3898900Y-4013200D03*
G01*
X3898900Y-4267200D03*
G01*
X3898900Y-4521200D03*
G01*
X3898900Y-4775200D03*
G01*
X3898900Y-5029200D03*
G01*
X3898900Y-5283200D03*
G01*
X3898900Y-5537200D03*
G01*
X3898900Y-5791200D03*
G01*
X3898900Y-6045200D03*
G01*
X3898900Y-6299200D03*
G01*
X3898900Y-6553200D03*
G01*
X3898900Y-6807200D03*
G01*
X3898900Y-7061200D03*
G01*
X3898900Y-7315200D03*
G01*
X3898900Y-7569200D03*
G01*
X3898900Y-7823200D03*
G01*
X3898900Y-8077200D03*
D13*
G01*
X2260600Y-2755900D03*
D14*
G01*
X2514600Y-2755900D03*
G01*
X2768600Y-2755900D03*
G01*
X3022600Y-2755900D03*
G01*
X3276600Y-2755900D03*
G01*
X3530600Y-2755900D03*
G01*
X3784600Y-2755900D03*
G01*
X4038600Y-2755900D03*
G01*
X4292600Y-2755900D03*
G01*
X4546600Y-2755900D03*
D15*
G01*
X5795721Y-6578600D03*
G01*
X6091478Y-6578600D03*
D16*
G01*
X6261100Y-3535121D03*
G01*
X6261100Y-3830878D03*
G01*
X5994400Y-4906721D03*
G01*
X5994400Y-5202478D03*
D15*
G01*
X5973521Y-5803900D03*
G01*
X6269278Y-5803900D03*
D16*
G01*
X4940300Y-4465878D03*
G01*
X4940300Y-4170121D03*
G01*
X5194300Y-5481878D03*
G01*
X5194300Y-5186121D03*
D15*
G01*
X4906721Y-5867400D03*
G01*
X5202478Y-5867400D03*
G01*
X4906721Y-6565900D03*
G01*
X5202478Y-6565900D03*
M02*
