G04 Layer: TopSilkscreenLayer*
G04 EasyEDA v6.5.51, 2025-10-07 15:43:34*
G04 065a6221327546c7852400a8f05eee82,a6cf4550276c400b965b925ba5ea59c0,10*
G04 Gerber Generator version 0.2*
G04 Scale: 100 percent, Rotated: No, Reflected: No *
G04 Dimensions in millimeters *
G04 leading zeros omitted , absolute positions ,4 integer and 5 decimal *
%FSLAX45Y45*%
%MOMM*%

%ADD10C,0.1524*%
%ADD11C,0.2032*%
%ADD12C,0.2540*%
%ADD13C,0.0158*%

%LPD*%
D10*
X3421786Y-630326D02*
G01*
X3421786Y-739292D01*
X3421786Y-630326D02*
G01*
X3458108Y-630326D01*
X3473856Y-635406D01*
X3484016Y-645820D01*
X3489350Y-656234D01*
X3494430Y-671982D01*
X3494430Y-697890D01*
X3489350Y-713384D01*
X3484016Y-723798D01*
X3473856Y-734212D01*
X3458108Y-739292D01*
X3421786Y-739292D01*
X3528720Y-630326D02*
G01*
X3528720Y-739292D01*
X3635908Y-645820D02*
G01*
X3625494Y-635406D01*
X3609746Y-630326D01*
X3589172Y-630326D01*
X3573424Y-635406D01*
X3563010Y-645820D01*
X3563010Y-656234D01*
X3568344Y-666648D01*
X3573424Y-671982D01*
X3583838Y-677062D01*
X3615080Y-687476D01*
X3625494Y-692556D01*
X3630574Y-697890D01*
X3635908Y-708304D01*
X3635908Y-723798D01*
X3625494Y-734212D01*
X3609746Y-739292D01*
X3589172Y-739292D01*
X3573424Y-734212D01*
X3563010Y-723798D01*
X3670198Y-630326D02*
G01*
X3670198Y-739292D01*
X3670198Y-630326D02*
G01*
X3716934Y-630326D01*
X3732428Y-635406D01*
X3737762Y-640740D01*
X3742842Y-651154D01*
X3742842Y-666648D01*
X3737762Y-677062D01*
X3732428Y-682142D01*
X3716934Y-687476D01*
X3670198Y-687476D01*
X3777132Y-651154D02*
G01*
X3787546Y-645820D01*
X3803040Y-630326D01*
X3803040Y-739292D01*
D11*
X3025800Y-1276695D02*
G01*
X3016656Y-1281267D01*
X3007512Y-1290157D01*
X3003194Y-1299301D01*
X3003194Y-1317589D01*
X3007512Y-1326733D01*
X3016656Y-1335623D01*
X3025800Y-1340195D01*
X3039516Y-1344767D01*
X3062122Y-1344767D01*
X3075838Y-1340195D01*
X3084982Y-1335623D01*
X3094126Y-1326733D01*
X3098444Y-1317589D01*
X3098444Y-1299301D01*
X3094126Y-1290157D01*
X3084982Y-1281267D01*
X3075838Y-1276695D01*
X3062122Y-1276695D01*
X3062122Y-1299301D02*
G01*
X3062122Y-1276695D01*
X3003194Y-1246723D02*
G01*
X3098444Y-1246723D01*
X3003194Y-1246723D02*
G01*
X3098444Y-1182969D01*
X3003194Y-1182969D02*
G01*
X3098444Y-1182969D01*
X3003194Y-1152997D02*
G01*
X3098444Y-1152997D01*
X3003194Y-1152997D02*
G01*
X3003194Y-1121247D01*
X3007512Y-1107531D01*
X3016656Y-1098387D01*
X3025800Y-1093815D01*
X3039516Y-1089243D01*
X3062122Y-1089243D01*
X3075838Y-1093815D01*
X3084982Y-1098387D01*
X3094126Y-1107531D01*
X3098444Y-1121247D01*
X3098444Y-1152997D01*
X3258116Y-1369672D02*
G01*
X3353620Y-1333350D01*
X3258116Y-1297028D02*
G01*
X3353620Y-1333350D01*
X3280722Y-1198984D02*
G01*
X3271832Y-1203556D01*
X3262688Y-1212446D01*
X3258116Y-1221590D01*
X3258116Y-1239878D01*
X3262688Y-1248768D01*
X3271832Y-1257912D01*
X3280722Y-1262484D01*
X3294438Y-1267056D01*
X3317298Y-1267056D01*
X3330760Y-1262484D01*
X3339904Y-1257912D01*
X3349048Y-1248768D01*
X3353620Y-1239878D01*
X3353620Y-1221590D01*
X3349048Y-1212446D01*
X3339904Y-1203556D01*
X3330760Y-1198984D01*
X3280722Y-1100686D02*
G01*
X3271832Y-1105258D01*
X3262688Y-1114402D01*
X3258116Y-1123546D01*
X3258116Y-1141580D01*
X3262688Y-1150724D01*
X3271832Y-1159868D01*
X3280722Y-1164440D01*
X3294438Y-1169012D01*
X3317298Y-1169012D01*
X3330760Y-1164440D01*
X3339904Y-1159868D01*
X3349048Y-1150724D01*
X3353620Y-1141580D01*
X3353620Y-1123546D01*
X3349048Y-1114402D01*
X3339904Y-1105258D01*
X3330760Y-1100686D01*
X3516772Y-1291160D02*
G01*
X3507628Y-1300304D01*
X3503056Y-1313766D01*
X3503056Y-1332054D01*
X3507628Y-1345770D01*
X3516772Y-1354914D01*
X3525916Y-1354914D01*
X3534806Y-1350342D01*
X3539378Y-1345770D01*
X3543950Y-1336626D01*
X3553094Y-1309448D01*
X3557666Y-1300304D01*
X3562238Y-1295732D01*
X3571382Y-1291160D01*
X3584844Y-1291160D01*
X3593988Y-1300304D01*
X3598560Y-1313766D01*
X3598560Y-1332054D01*
X3593988Y-1345770D01*
X3584844Y-1354914D01*
X3525916Y-1192862D02*
G01*
X3516772Y-1197434D01*
X3507628Y-1206578D01*
X3503056Y-1215722D01*
X3503056Y-1234010D01*
X3507628Y-1242900D01*
X3516772Y-1252044D01*
X3525916Y-1256616D01*
X3539378Y-1261188D01*
X3562238Y-1261188D01*
X3575700Y-1256616D01*
X3584844Y-1252044D01*
X3593988Y-1242900D01*
X3598560Y-1234010D01*
X3598560Y-1215722D01*
X3593988Y-1206578D01*
X3584844Y-1197434D01*
X3575700Y-1192862D01*
X3503056Y-1162890D02*
G01*
X3598560Y-1162890D01*
X3598560Y-1162890D02*
G01*
X3598560Y-1108534D01*
X3771699Y-1296070D02*
G01*
X3762555Y-1305214D01*
X3757983Y-1318930D01*
X3757983Y-1336964D01*
X3762555Y-1350680D01*
X3771699Y-1359824D01*
X3780843Y-1359824D01*
X3789987Y-1355252D01*
X3794559Y-1350680D01*
X3798877Y-1341536D01*
X3808021Y-1314358D01*
X3812593Y-1305214D01*
X3817165Y-1300642D01*
X3826309Y-1296070D01*
X3840025Y-1296070D01*
X3848915Y-1305214D01*
X3853487Y-1318930D01*
X3853487Y-1336964D01*
X3848915Y-1350680D01*
X3840025Y-1359824D01*
X3757983Y-1266098D02*
G01*
X3853487Y-1266098D01*
X3757983Y-1266098D02*
G01*
X3757983Y-1234348D01*
X3762555Y-1220632D01*
X3771699Y-1211742D01*
X3780843Y-1207170D01*
X3794559Y-1202598D01*
X3817165Y-1202598D01*
X3830881Y-1207170D01*
X3840025Y-1211742D01*
X3848915Y-1220632D01*
X3853487Y-1234348D01*
X3853487Y-1266098D01*
X3757983Y-1136050D02*
G01*
X3853487Y-1172626D01*
X3757983Y-1136050D02*
G01*
X3853487Y-1099728D01*
X3821737Y-1158910D02*
G01*
X3821737Y-1113444D01*
D10*
X2755900Y-2932684D02*
G01*
X2755900Y-3010662D01*
X2760979Y-3026155D01*
X2771393Y-3036570D01*
X2787141Y-3041650D01*
X2797556Y-3041650D01*
X2813050Y-3036570D01*
X2823463Y-3026155D01*
X2828543Y-3010662D01*
X2828543Y-2932684D01*
X2862834Y-2953512D02*
G01*
X2873247Y-2948178D01*
X2888995Y-2932684D01*
X2888995Y-3041650D01*
D11*
X2286000Y-3084576D02*
G01*
X2286000Y-3278378D01*
X2286000Y-3084576D02*
G01*
X2406141Y-3084576D01*
X2286000Y-3176778D02*
G01*
X2359913Y-3176778D01*
X2286000Y-3278378D02*
G01*
X2406141Y-3278378D01*
X2596388Y-3112262D02*
G01*
X2577845Y-3093720D01*
X2550159Y-3084576D01*
X2513329Y-3084576D01*
X2485390Y-3093720D01*
X2467102Y-3112262D01*
X2467102Y-3130550D01*
X2476245Y-3149092D01*
X2485390Y-3158489D01*
X2503931Y-3167634D01*
X2559304Y-3186176D01*
X2577845Y-3195320D01*
X2586990Y-3204463D01*
X2596388Y-3223005D01*
X2596388Y-3250692D01*
X2577845Y-3269234D01*
X2550159Y-3278378D01*
X2513329Y-3278378D01*
X2485390Y-3269234D01*
X2467102Y-3250692D01*
X2657347Y-3084576D02*
G01*
X2657347Y-3278378D01*
X2657347Y-3084576D02*
G01*
X2740406Y-3084576D01*
X2768091Y-3093720D01*
X2777490Y-3102863D01*
X2786634Y-3121405D01*
X2786634Y-3149092D01*
X2777490Y-3167634D01*
X2768091Y-3176778D01*
X2740406Y-3186176D01*
X2657347Y-3186176D01*
X2866136Y-3084576D02*
G01*
X2967736Y-3084576D01*
X2912109Y-3158489D01*
X2940050Y-3158489D01*
X2958338Y-3167634D01*
X2967736Y-3176778D01*
X2976879Y-3204463D01*
X2976879Y-3223005D01*
X2967736Y-3250692D01*
X2949193Y-3269234D01*
X2921508Y-3278378D01*
X2893822Y-3278378D01*
X2866136Y-3269234D01*
X2856738Y-3260089D01*
X2847593Y-3241547D01*
X3046984Y-3130550D02*
G01*
X3046984Y-3121405D01*
X3056381Y-3102863D01*
X3065525Y-3093720D01*
X3084068Y-3084576D01*
X3120897Y-3084576D01*
X3139440Y-3093720D01*
X3148584Y-3102863D01*
X3157981Y-3121405D01*
X3157981Y-3139947D01*
X3148584Y-3158489D01*
X3130295Y-3186176D01*
X3037840Y-3278378D01*
X3167125Y-3278378D01*
X953515Y-3431026D02*
G01*
X1028445Y-3431026D01*
X987552Y-3485636D01*
X1007871Y-3485636D01*
X1021587Y-3492240D01*
X1028445Y-3499098D01*
X1035304Y-3519672D01*
X1035304Y-3533388D01*
X1028445Y-3553708D01*
X1014729Y-3567424D01*
X994410Y-3574282D01*
X973836Y-3574282D01*
X953515Y-3567424D01*
X946657Y-3560566D01*
X939800Y-3546850D01*
X1080262Y-3431026D02*
G01*
X1134871Y-3574282D01*
X1189228Y-3431026D02*
G01*
X1134871Y-3574282D01*
X1247902Y-3431026D02*
G01*
X1323086Y-3431026D01*
X1282192Y-3485636D01*
X1302512Y-3485636D01*
X1316228Y-3492240D01*
X1323086Y-3499098D01*
X1329689Y-3519672D01*
X1329689Y-3533388D01*
X1323086Y-3553708D01*
X1309370Y-3567424D01*
X1288795Y-3574282D01*
X1268476Y-3574282D01*
X1247902Y-3567424D01*
X1241044Y-3560566D01*
X1234439Y-3546850D01*
X952500Y-3695697D02*
G01*
X952500Y-3838953D01*
X952500Y-3695697D02*
G01*
X1013968Y-3695697D01*
X1034287Y-3702555D01*
X1041145Y-3709413D01*
X1048004Y-3722875D01*
X1048004Y-3736591D01*
X1041145Y-3750307D01*
X1034287Y-3756911D01*
X1013968Y-3763769D01*
X952500Y-3763769D01*
X1000252Y-3763769D02*
G01*
X1048004Y-3838953D01*
X1188465Y-3716017D02*
G01*
X1174750Y-3702555D01*
X1154429Y-3695697D01*
X1126997Y-3695697D01*
X1106678Y-3702555D01*
X1092962Y-3716017D01*
X1092962Y-3729733D01*
X1099820Y-3743449D01*
X1106678Y-3750307D01*
X1120139Y-3756911D01*
X1161034Y-3770627D01*
X1174750Y-3777485D01*
X1181607Y-3784343D01*
X1188465Y-3798059D01*
X1188465Y-3818379D01*
X1174750Y-3832095D01*
X1154429Y-3838953D01*
X1126997Y-3838953D01*
X1106678Y-3832095D01*
X1092962Y-3818379D01*
X1281176Y-3695697D02*
G01*
X1281176Y-3838953D01*
X1233423Y-3695697D02*
G01*
X1328928Y-3695697D01*
X952500Y-3939031D02*
G01*
X952500Y-4082287D01*
X1038352Y-3939031D02*
G01*
X1024889Y-3945889D01*
X1011173Y-3959352D01*
X1004315Y-3973068D01*
X997457Y-3993642D01*
X997457Y-4027678D01*
X1004315Y-4047997D01*
X1011173Y-4061713D01*
X1024889Y-4075429D01*
X1038352Y-4082287D01*
X1065784Y-4082287D01*
X1079245Y-4075429D01*
X1092962Y-4061713D01*
X1099820Y-4047997D01*
X1106678Y-4027678D01*
X1106678Y-3993642D01*
X1099820Y-3973068D01*
X1092962Y-3959352D01*
X1079245Y-3945889D01*
X1065784Y-3939031D01*
X1038352Y-3939031D01*
X1165352Y-3939031D02*
G01*
X1240281Y-3939031D01*
X1199387Y-3993642D01*
X1219707Y-3993642D01*
X1233423Y-4000245D01*
X1240281Y-4007104D01*
X1247139Y-4027678D01*
X1247139Y-4041394D01*
X1240281Y-4061713D01*
X1226565Y-4075429D01*
X1206245Y-4082287D01*
X1185671Y-4082287D01*
X1165352Y-4075429D01*
X1158494Y-4068571D01*
X1151636Y-4054855D01*
X1373886Y-3959352D02*
G01*
X1367028Y-3945889D01*
X1346707Y-3939031D01*
X1332992Y-3939031D01*
X1312418Y-3945889D01*
X1298955Y-3966210D01*
X1292097Y-4000245D01*
X1292097Y-4034536D01*
X1298955Y-4061713D01*
X1312418Y-4075429D01*
X1332992Y-4082287D01*
X1339850Y-4082287D01*
X1360170Y-4075429D01*
X1373886Y-4061713D01*
X1380744Y-4041394D01*
X1380744Y-4034536D01*
X1373886Y-4013962D01*
X1360170Y-4000245D01*
X1339850Y-3993642D01*
X1332992Y-3993642D01*
X1312418Y-4000245D01*
X1298955Y-4013962D01*
X1292097Y-4034536D01*
X952500Y-4193031D02*
G01*
X952500Y-4336287D01*
X1038352Y-4193031D02*
G01*
X1024889Y-4199889D01*
X1011173Y-4213352D01*
X1004315Y-4227068D01*
X997457Y-4247642D01*
X997457Y-4281678D01*
X1004315Y-4301997D01*
X1011173Y-4315713D01*
X1024889Y-4329429D01*
X1038352Y-4336287D01*
X1065784Y-4336287D01*
X1079245Y-4329429D01*
X1092962Y-4315713D01*
X1099820Y-4301997D01*
X1106678Y-4281678D01*
X1106678Y-4247642D01*
X1099820Y-4227068D01*
X1092962Y-4213352D01*
X1079245Y-4199889D01*
X1065784Y-4193031D01*
X1038352Y-4193031D01*
X1165352Y-4193031D02*
G01*
X1240281Y-4193031D01*
X1199387Y-4247642D01*
X1219707Y-4247642D01*
X1233423Y-4254245D01*
X1240281Y-4261104D01*
X1247139Y-4281678D01*
X1247139Y-4295394D01*
X1240281Y-4315713D01*
X1226565Y-4329429D01*
X1206245Y-4336287D01*
X1185671Y-4336287D01*
X1165352Y-4329429D01*
X1158494Y-4322571D01*
X1151636Y-4308855D01*
X1380744Y-4240784D02*
G01*
X1373886Y-4261104D01*
X1360170Y-4274820D01*
X1339850Y-4281678D01*
X1332992Y-4281678D01*
X1312418Y-4274820D01*
X1298955Y-4261104D01*
X1292097Y-4240784D01*
X1292097Y-4233926D01*
X1298955Y-4213352D01*
X1312418Y-4199889D01*
X1332992Y-4193031D01*
X1339850Y-4193031D01*
X1360170Y-4199889D01*
X1373886Y-4213352D01*
X1380744Y-4240784D01*
X1380744Y-4274820D01*
X1373886Y-4308855D01*
X1360170Y-4329429D01*
X1339850Y-4336287D01*
X1326134Y-4336287D01*
X1305560Y-4329429D01*
X1298955Y-4315713D01*
X952500Y-4444997D02*
G01*
X952500Y-4588253D01*
X1038352Y-4444997D02*
G01*
X1024889Y-4451855D01*
X1011173Y-4465317D01*
X1004315Y-4479033D01*
X997457Y-4499607D01*
X997457Y-4533643D01*
X1004315Y-4553963D01*
X1011173Y-4567679D01*
X1024889Y-4581395D01*
X1038352Y-4588253D01*
X1065784Y-4588253D01*
X1079245Y-4581395D01*
X1092962Y-4567679D01*
X1099820Y-4553963D01*
X1106678Y-4533643D01*
X1106678Y-4499607D01*
X1099820Y-4479033D01*
X1092962Y-4465317D01*
X1079245Y-4451855D01*
X1065784Y-4444997D01*
X1038352Y-4444997D01*
X1165352Y-4444997D02*
G01*
X1240281Y-4444997D01*
X1199387Y-4499607D01*
X1219707Y-4499607D01*
X1233423Y-4506211D01*
X1240281Y-4513069D01*
X1247139Y-4533643D01*
X1247139Y-4547359D01*
X1240281Y-4567679D01*
X1226565Y-4581395D01*
X1206245Y-4588253D01*
X1185671Y-4588253D01*
X1165352Y-4581395D01*
X1158494Y-4574537D01*
X1151636Y-4560821D01*
X1360170Y-4444997D02*
G01*
X1292097Y-4540501D01*
X1394205Y-4540501D01*
X1360170Y-4444997D02*
G01*
X1360170Y-4588253D01*
X952500Y-4698997D02*
G01*
X952500Y-4842253D01*
X1038352Y-4698997D02*
G01*
X1024889Y-4705855D01*
X1011173Y-4719317D01*
X1004315Y-4733033D01*
X997457Y-4753607D01*
X997457Y-4787643D01*
X1004315Y-4807963D01*
X1011173Y-4821679D01*
X1024889Y-4835395D01*
X1038352Y-4842253D01*
X1065784Y-4842253D01*
X1079245Y-4835395D01*
X1092962Y-4821679D01*
X1099820Y-4807963D01*
X1106678Y-4787643D01*
X1106678Y-4753607D01*
X1099820Y-4733033D01*
X1092962Y-4719317D01*
X1079245Y-4705855D01*
X1065784Y-4698997D01*
X1038352Y-4698997D01*
X1165352Y-4698997D02*
G01*
X1240281Y-4698997D01*
X1199387Y-4753607D01*
X1219707Y-4753607D01*
X1233423Y-4760211D01*
X1240281Y-4767069D01*
X1247139Y-4787643D01*
X1247139Y-4801359D01*
X1240281Y-4821679D01*
X1226565Y-4835395D01*
X1206245Y-4842253D01*
X1185671Y-4842253D01*
X1165352Y-4835395D01*
X1158494Y-4828537D01*
X1151636Y-4814821D01*
X1373886Y-4698997D02*
G01*
X1305560Y-4698997D01*
X1298955Y-4760211D01*
X1305560Y-4753607D01*
X1326134Y-4746749D01*
X1346707Y-4746749D01*
X1367028Y-4753607D01*
X1380744Y-4767069D01*
X1387602Y-4787643D01*
X1387602Y-4801359D01*
X1380744Y-4821679D01*
X1367028Y-4835395D01*
X1346707Y-4842253D01*
X1326134Y-4842253D01*
X1305560Y-4835395D01*
X1298955Y-4828537D01*
X1292097Y-4814821D01*
X952500Y-4952997D02*
G01*
X952500Y-5096253D01*
X1038352Y-4952997D02*
G01*
X1024889Y-4959855D01*
X1011173Y-4973317D01*
X1004315Y-4987033D01*
X997457Y-5007607D01*
X997457Y-5041643D01*
X1004315Y-5061963D01*
X1011173Y-5075679D01*
X1024889Y-5089395D01*
X1038352Y-5096253D01*
X1065784Y-5096253D01*
X1079245Y-5089395D01*
X1092962Y-5075679D01*
X1099820Y-5061963D01*
X1106678Y-5041643D01*
X1106678Y-5007607D01*
X1099820Y-4987033D01*
X1092962Y-4973317D01*
X1079245Y-4959855D01*
X1065784Y-4952997D01*
X1038352Y-4952997D01*
X1165352Y-4952997D02*
G01*
X1240281Y-4952997D01*
X1199387Y-5007607D01*
X1219707Y-5007607D01*
X1233423Y-5014211D01*
X1240281Y-5021069D01*
X1247139Y-5041643D01*
X1247139Y-5055359D01*
X1240281Y-5075679D01*
X1226565Y-5089395D01*
X1206245Y-5096253D01*
X1185671Y-5096253D01*
X1165352Y-5089395D01*
X1158494Y-5082537D01*
X1151636Y-5068821D01*
X1298955Y-4987033D02*
G01*
X1298955Y-4980175D01*
X1305560Y-4966713D01*
X1312418Y-4959855D01*
X1326134Y-4952997D01*
X1353312Y-4952997D01*
X1367028Y-4959855D01*
X1373886Y-4966713D01*
X1380744Y-4980175D01*
X1380744Y-4993891D01*
X1373886Y-5007607D01*
X1360170Y-5027927D01*
X1292097Y-5096253D01*
X1387602Y-5096253D01*
X952500Y-6212331D02*
G01*
X952500Y-6355587D01*
X1038352Y-6212331D02*
G01*
X1024889Y-6219189D01*
X1011173Y-6232652D01*
X1004315Y-6246368D01*
X997457Y-6266942D01*
X997457Y-6300978D01*
X1004315Y-6321297D01*
X1011173Y-6335013D01*
X1024889Y-6348729D01*
X1038352Y-6355587D01*
X1065784Y-6355587D01*
X1079245Y-6348729D01*
X1092962Y-6335013D01*
X1099820Y-6321297D01*
X1106678Y-6300978D01*
X1106678Y-6266942D01*
X1099820Y-6246368D01*
X1092962Y-6232652D01*
X1079245Y-6219189D01*
X1065784Y-6212331D01*
X1038352Y-6212331D01*
X1151636Y-6239510D02*
G01*
X1165352Y-6232652D01*
X1185671Y-6212331D01*
X1185671Y-6355587D01*
X1298955Y-6212331D02*
G01*
X1230629Y-6307836D01*
X1332992Y-6307836D01*
X1298955Y-6212331D02*
G01*
X1298955Y-6355587D01*
X952500Y-5971031D02*
G01*
X952500Y-6114287D01*
X1038352Y-5971031D02*
G01*
X1024889Y-5977889D01*
X1011173Y-5991352D01*
X1004315Y-6005068D01*
X997457Y-6025642D01*
X997457Y-6059678D01*
X1004315Y-6079997D01*
X1011173Y-6093713D01*
X1024889Y-6107429D01*
X1038352Y-6114287D01*
X1065784Y-6114287D01*
X1079245Y-6107429D01*
X1092962Y-6093713D01*
X1099820Y-6079997D01*
X1106678Y-6059678D01*
X1106678Y-6025642D01*
X1099820Y-6005068D01*
X1092962Y-5991352D01*
X1079245Y-5977889D01*
X1065784Y-5971031D01*
X1038352Y-5971031D01*
X1158494Y-6005068D02*
G01*
X1158494Y-5998210D01*
X1165352Y-5984747D01*
X1171955Y-5977889D01*
X1185671Y-5971031D01*
X1212850Y-5971031D01*
X1226565Y-5977889D01*
X1233423Y-5984747D01*
X1240281Y-5998210D01*
X1240281Y-6011926D01*
X1233423Y-6025642D01*
X1219707Y-6045962D01*
X1151636Y-6114287D01*
X1247139Y-6114287D01*
X1387602Y-5971031D02*
G01*
X1319276Y-6114287D01*
X1292097Y-5971031D02*
G01*
X1387602Y-5971031D01*
X952500Y-5717031D02*
G01*
X952500Y-5860287D01*
X1038352Y-5717031D02*
G01*
X1024889Y-5723889D01*
X1011173Y-5737352D01*
X1004315Y-5751068D01*
X997457Y-5771642D01*
X997457Y-5805678D01*
X1004315Y-5825997D01*
X1011173Y-5839713D01*
X1024889Y-5853429D01*
X1038352Y-5860287D01*
X1065784Y-5860287D01*
X1079245Y-5853429D01*
X1092962Y-5839713D01*
X1099820Y-5825997D01*
X1106678Y-5805678D01*
X1106678Y-5771642D01*
X1099820Y-5751068D01*
X1092962Y-5737352D01*
X1079245Y-5723889D01*
X1065784Y-5717031D01*
X1038352Y-5717031D01*
X1158494Y-5751068D02*
G01*
X1158494Y-5744210D01*
X1165352Y-5730747D01*
X1171955Y-5723889D01*
X1185671Y-5717031D01*
X1212850Y-5717031D01*
X1226565Y-5723889D01*
X1233423Y-5730747D01*
X1240281Y-5744210D01*
X1240281Y-5757926D01*
X1233423Y-5771642D01*
X1219707Y-5791962D01*
X1151636Y-5860287D01*
X1247139Y-5860287D01*
X1373886Y-5737352D02*
G01*
X1367028Y-5723889D01*
X1346707Y-5717031D01*
X1332992Y-5717031D01*
X1312418Y-5723889D01*
X1298955Y-5744210D01*
X1292097Y-5778245D01*
X1292097Y-5812536D01*
X1298955Y-5839713D01*
X1312418Y-5853429D01*
X1332992Y-5860287D01*
X1339850Y-5860287D01*
X1360170Y-5853429D01*
X1373886Y-5839713D01*
X1380744Y-5819394D01*
X1380744Y-5812536D01*
X1373886Y-5791962D01*
X1360170Y-5778245D01*
X1339850Y-5771642D01*
X1332992Y-5771642D01*
X1312418Y-5778245D01*
X1298955Y-5791962D01*
X1292097Y-5812536D01*
X952500Y-5460997D02*
G01*
X952500Y-5604253D01*
X1038352Y-5460997D02*
G01*
X1024889Y-5467855D01*
X1011173Y-5481317D01*
X1004315Y-5495033D01*
X997457Y-5515607D01*
X997457Y-5549643D01*
X1004315Y-5569963D01*
X1011173Y-5583679D01*
X1024889Y-5597395D01*
X1038352Y-5604253D01*
X1065784Y-5604253D01*
X1079245Y-5597395D01*
X1092962Y-5583679D01*
X1099820Y-5569963D01*
X1106678Y-5549643D01*
X1106678Y-5515607D01*
X1099820Y-5495033D01*
X1092962Y-5481317D01*
X1079245Y-5467855D01*
X1065784Y-5460997D01*
X1038352Y-5460997D01*
X1158494Y-5495033D02*
G01*
X1158494Y-5488175D01*
X1165352Y-5474713D01*
X1171955Y-5467855D01*
X1185671Y-5460997D01*
X1212850Y-5460997D01*
X1226565Y-5467855D01*
X1233423Y-5474713D01*
X1240281Y-5488175D01*
X1240281Y-5501891D01*
X1233423Y-5515607D01*
X1219707Y-5535927D01*
X1151636Y-5604253D01*
X1247139Y-5604253D01*
X1373886Y-5460997D02*
G01*
X1305560Y-5460997D01*
X1298955Y-5522211D01*
X1305560Y-5515607D01*
X1326134Y-5508749D01*
X1346707Y-5508749D01*
X1367028Y-5515607D01*
X1380744Y-5529069D01*
X1387602Y-5549643D01*
X1387602Y-5563359D01*
X1380744Y-5583679D01*
X1367028Y-5597395D01*
X1346707Y-5604253D01*
X1326134Y-5604253D01*
X1305560Y-5597395D01*
X1298955Y-5590537D01*
X1292097Y-5576821D01*
X952500Y-5209031D02*
G01*
X952500Y-5352287D01*
X1038352Y-5209031D02*
G01*
X1024889Y-5215889D01*
X1011173Y-5229352D01*
X1004315Y-5243068D01*
X997457Y-5263642D01*
X997457Y-5297678D01*
X1004315Y-5317997D01*
X1011173Y-5331713D01*
X1024889Y-5345429D01*
X1038352Y-5352287D01*
X1065784Y-5352287D01*
X1079245Y-5345429D01*
X1092962Y-5331713D01*
X1099820Y-5317997D01*
X1106678Y-5297678D01*
X1106678Y-5263642D01*
X1099820Y-5243068D01*
X1092962Y-5229352D01*
X1079245Y-5215889D01*
X1065784Y-5209031D01*
X1038352Y-5209031D01*
X1165352Y-5209031D02*
G01*
X1240281Y-5209031D01*
X1199387Y-5263642D01*
X1219707Y-5263642D01*
X1233423Y-5270245D01*
X1240281Y-5277104D01*
X1247139Y-5297678D01*
X1247139Y-5311394D01*
X1240281Y-5331713D01*
X1226565Y-5345429D01*
X1206245Y-5352287D01*
X1185671Y-5352287D01*
X1165352Y-5345429D01*
X1158494Y-5338571D01*
X1151636Y-5324855D01*
X1305560Y-5209031D02*
G01*
X1380744Y-5209031D01*
X1339850Y-5263642D01*
X1360170Y-5263642D01*
X1373886Y-5270245D01*
X1380744Y-5277104D01*
X1387602Y-5297678D01*
X1387602Y-5311394D01*
X1380744Y-5331713D01*
X1367028Y-5345429D01*
X1346707Y-5352287D01*
X1326134Y-5352287D01*
X1305560Y-5345429D01*
X1298955Y-5338571D01*
X1292097Y-5324855D01*
X952500Y-7749034D02*
G01*
X952500Y-7892290D01*
X1038352Y-7749034D02*
G01*
X1024889Y-7755892D01*
X1011173Y-7769354D01*
X1004315Y-7783070D01*
X997457Y-7803644D01*
X997457Y-7837680D01*
X1004315Y-7858000D01*
X1011173Y-7871716D01*
X1024889Y-7885432D01*
X1038352Y-7892290D01*
X1065784Y-7892290D01*
X1079245Y-7885432D01*
X1092962Y-7871716D01*
X1099820Y-7858000D01*
X1106678Y-7837680D01*
X1106678Y-7803644D01*
X1099820Y-7783070D01*
X1092962Y-7769354D01*
X1079245Y-7755892D01*
X1065784Y-7749034D01*
X1038352Y-7749034D01*
X1151636Y-7776212D02*
G01*
X1165352Y-7769354D01*
X1185671Y-7749034D01*
X1185671Y-7892290D01*
X1230629Y-7776212D02*
G01*
X1244345Y-7769354D01*
X1264665Y-7749034D01*
X1264665Y-7892290D01*
X952500Y-7493000D02*
G01*
X952500Y-7636255D01*
X1038352Y-7493000D02*
G01*
X1024889Y-7499858D01*
X1011173Y-7513320D01*
X1004315Y-7527036D01*
X997457Y-7547610D01*
X997457Y-7581645D01*
X1004315Y-7601965D01*
X1011173Y-7615681D01*
X1024889Y-7629397D01*
X1038352Y-7636255D01*
X1065784Y-7636255D01*
X1079245Y-7629397D01*
X1092962Y-7615681D01*
X1099820Y-7601965D01*
X1106678Y-7581645D01*
X1106678Y-7547610D01*
X1099820Y-7527036D01*
X1092962Y-7513320D01*
X1079245Y-7499858D01*
X1065784Y-7493000D01*
X1038352Y-7493000D01*
X1151636Y-7520178D02*
G01*
X1165352Y-7513320D01*
X1185671Y-7493000D01*
X1185671Y-7636255D01*
X1271523Y-7493000D02*
G01*
X1251204Y-7499858D01*
X1237487Y-7520178D01*
X1230629Y-7554213D01*
X1230629Y-7574787D01*
X1237487Y-7608823D01*
X1251204Y-7629397D01*
X1271523Y-7636255D01*
X1285239Y-7636255D01*
X1305560Y-7629397D01*
X1319276Y-7608823D01*
X1326134Y-7574787D01*
X1326134Y-7554213D01*
X1319276Y-7520178D01*
X1305560Y-7499858D01*
X1285239Y-7493000D01*
X1271523Y-7493000D01*
X952500Y-7239000D02*
G01*
X952500Y-7382255D01*
X1038352Y-7239000D02*
G01*
X1024889Y-7245858D01*
X1011173Y-7259320D01*
X1004315Y-7273036D01*
X997457Y-7293610D01*
X997457Y-7327645D01*
X1004315Y-7347965D01*
X1011173Y-7361681D01*
X1024889Y-7375397D01*
X1038352Y-7382255D01*
X1065784Y-7382255D01*
X1079245Y-7375397D01*
X1092962Y-7361681D01*
X1099820Y-7347965D01*
X1106678Y-7327645D01*
X1106678Y-7293610D01*
X1099820Y-7273036D01*
X1092962Y-7259320D01*
X1079245Y-7245858D01*
X1065784Y-7239000D01*
X1038352Y-7239000D01*
X1240281Y-7286752D02*
G01*
X1233423Y-7307071D01*
X1219707Y-7320787D01*
X1199387Y-7327645D01*
X1192529Y-7327645D01*
X1171955Y-7320787D01*
X1158494Y-7307071D01*
X1151636Y-7286752D01*
X1151636Y-7279894D01*
X1158494Y-7259320D01*
X1171955Y-7245858D01*
X1192529Y-7239000D01*
X1199387Y-7239000D01*
X1219707Y-7245858D01*
X1233423Y-7259320D01*
X1240281Y-7286752D01*
X1240281Y-7320787D01*
X1233423Y-7354823D01*
X1219707Y-7375397D01*
X1199387Y-7382255D01*
X1185671Y-7382255D01*
X1165352Y-7375397D01*
X1158494Y-7361681D01*
X952500Y-6985000D02*
G01*
X952500Y-7128255D01*
X1038352Y-6985000D02*
G01*
X1024889Y-6991858D01*
X1011173Y-7005320D01*
X1004315Y-7019036D01*
X997457Y-7039610D01*
X997457Y-7073645D01*
X1004315Y-7093965D01*
X1011173Y-7107681D01*
X1024889Y-7121397D01*
X1038352Y-7128255D01*
X1065784Y-7128255D01*
X1079245Y-7121397D01*
X1092962Y-7107681D01*
X1099820Y-7093965D01*
X1106678Y-7073645D01*
X1106678Y-7039610D01*
X1099820Y-7019036D01*
X1092962Y-7005320D01*
X1079245Y-6991858D01*
X1065784Y-6985000D01*
X1038352Y-6985000D01*
X1151636Y-7012178D02*
G01*
X1165352Y-7005320D01*
X1185671Y-6985000D01*
X1185671Y-7128255D01*
X1244345Y-6985000D02*
G01*
X1319276Y-6985000D01*
X1278381Y-7039610D01*
X1298955Y-7039610D01*
X1312418Y-7046213D01*
X1319276Y-7053071D01*
X1326134Y-7073645D01*
X1326134Y-7087362D01*
X1319276Y-7107681D01*
X1305560Y-7121397D01*
X1285239Y-7128255D01*
X1264665Y-7128255D01*
X1244345Y-7121397D01*
X1237487Y-7114539D01*
X1230629Y-7100823D01*
X952500Y-6479031D02*
G01*
X952500Y-6622287D01*
X1038352Y-6479031D02*
G01*
X1024889Y-6485889D01*
X1011173Y-6499352D01*
X1004315Y-6513068D01*
X997457Y-6533642D01*
X997457Y-6567678D01*
X1004315Y-6587997D01*
X1011173Y-6601713D01*
X1024889Y-6615429D01*
X1038352Y-6622287D01*
X1065784Y-6622287D01*
X1079245Y-6615429D01*
X1092962Y-6601713D01*
X1099820Y-6587997D01*
X1106678Y-6567678D01*
X1106678Y-6533642D01*
X1099820Y-6513068D01*
X1092962Y-6499352D01*
X1079245Y-6485889D01*
X1065784Y-6479031D01*
X1038352Y-6479031D01*
X1151636Y-6506210D02*
G01*
X1165352Y-6499352D01*
X1185671Y-6479031D01*
X1185671Y-6622287D01*
X1237487Y-6513068D02*
G01*
X1237487Y-6506210D01*
X1244345Y-6492747D01*
X1251204Y-6485889D01*
X1264665Y-6479031D01*
X1292097Y-6479031D01*
X1305560Y-6485889D01*
X1312418Y-6492747D01*
X1319276Y-6506210D01*
X1319276Y-6519926D01*
X1312418Y-6533642D01*
X1298955Y-6553962D01*
X1230629Y-6622287D01*
X1326134Y-6622287D01*
X4140200Y-6479031D02*
G01*
X4140200Y-6622287D01*
X4226052Y-6479031D02*
G01*
X4212590Y-6485889D01*
X4198874Y-6499352D01*
X4192015Y-6513068D01*
X4185158Y-6533642D01*
X4185158Y-6567678D01*
X4192015Y-6587997D01*
X4198874Y-6601713D01*
X4212590Y-6615429D01*
X4226052Y-6622287D01*
X4253484Y-6622287D01*
X4266945Y-6615429D01*
X4280661Y-6601713D01*
X4287520Y-6587997D01*
X4294377Y-6567678D01*
X4294377Y-6533642D01*
X4287520Y-6513068D01*
X4280661Y-6499352D01*
X4266945Y-6485889D01*
X4253484Y-6479031D01*
X4226052Y-6479031D01*
X4407408Y-6479031D02*
G01*
X4339336Y-6574536D01*
X4441443Y-6574536D01*
X4407408Y-6479031D02*
G01*
X4407408Y-6622287D01*
X4140200Y-6733031D02*
G01*
X4140200Y-6876287D01*
X4226052Y-6733031D02*
G01*
X4212590Y-6739889D01*
X4198874Y-6753352D01*
X4192015Y-6767068D01*
X4185158Y-6787642D01*
X4185158Y-6821678D01*
X4192015Y-6841997D01*
X4198874Y-6855713D01*
X4212590Y-6869429D01*
X4226052Y-6876287D01*
X4253484Y-6876287D01*
X4266945Y-6869429D01*
X4280661Y-6855713D01*
X4287520Y-6841997D01*
X4294377Y-6821678D01*
X4294377Y-6787642D01*
X4287520Y-6767068D01*
X4280661Y-6753352D01*
X4266945Y-6739889D01*
X4253484Y-6733031D01*
X4226052Y-6733031D01*
X4380229Y-6733031D02*
G01*
X4359656Y-6739889D01*
X4346193Y-6760210D01*
X4339336Y-6794245D01*
X4339336Y-6814820D01*
X4346193Y-6848855D01*
X4359656Y-6869429D01*
X4380229Y-6876287D01*
X4393945Y-6876287D01*
X4414265Y-6869429D01*
X4427981Y-6848855D01*
X4434840Y-6814820D01*
X4434840Y-6794245D01*
X4427981Y-6760210D01*
X4414265Y-6739889D01*
X4393945Y-6733031D01*
X4380229Y-6733031D01*
X4140200Y-6987031D02*
G01*
X4140200Y-7130287D01*
X4226052Y-6987031D02*
G01*
X4212590Y-6993889D01*
X4198874Y-7007352D01*
X4192015Y-7021068D01*
X4185158Y-7041642D01*
X4185158Y-7075678D01*
X4192015Y-7095997D01*
X4198874Y-7109713D01*
X4212590Y-7123429D01*
X4226052Y-7130287D01*
X4253484Y-7130287D01*
X4266945Y-7123429D01*
X4280661Y-7109713D01*
X4287520Y-7095997D01*
X4294377Y-7075678D01*
X4294377Y-7041642D01*
X4287520Y-7021068D01*
X4280661Y-7007352D01*
X4266945Y-6993889D01*
X4253484Y-6987031D01*
X4226052Y-6987031D01*
X4346193Y-7021068D02*
G01*
X4346193Y-7014210D01*
X4353052Y-7000747D01*
X4359656Y-6993889D01*
X4373372Y-6987031D01*
X4400550Y-6987031D01*
X4414265Y-6993889D01*
X4421124Y-7000747D01*
X4427981Y-7014210D01*
X4427981Y-7027926D01*
X4421124Y-7041642D01*
X4407408Y-7061962D01*
X4339336Y-7130287D01*
X4434840Y-7130287D01*
X4140200Y-7241031D02*
G01*
X4140200Y-7384287D01*
X4226052Y-7241031D02*
G01*
X4212590Y-7247889D01*
X4198874Y-7261352D01*
X4192015Y-7275068D01*
X4185158Y-7295642D01*
X4185158Y-7329678D01*
X4192015Y-7349997D01*
X4198874Y-7363713D01*
X4212590Y-7377429D01*
X4226052Y-7384287D01*
X4253484Y-7384287D01*
X4266945Y-7377429D01*
X4280661Y-7363713D01*
X4287520Y-7349997D01*
X4294377Y-7329678D01*
X4294377Y-7295642D01*
X4287520Y-7275068D01*
X4280661Y-7261352D01*
X4266945Y-7247889D01*
X4253484Y-7241031D01*
X4226052Y-7241031D01*
X4339336Y-7268210D02*
G01*
X4353052Y-7261352D01*
X4373372Y-7241031D01*
X4373372Y-7384287D01*
X4500118Y-7241031D02*
G01*
X4432045Y-7241031D01*
X4425188Y-7302245D01*
X4432045Y-7295642D01*
X4452365Y-7288784D01*
X4472940Y-7288784D01*
X4493259Y-7295642D01*
X4506975Y-7309104D01*
X4513834Y-7329678D01*
X4513834Y-7343394D01*
X4506975Y-7363713D01*
X4493259Y-7377429D01*
X4472940Y-7384287D01*
X4452365Y-7384287D01*
X4432045Y-7377429D01*
X4425188Y-7370571D01*
X4418329Y-7356855D01*
X4140200Y-7495031D02*
G01*
X4140200Y-7638287D01*
X4226052Y-7495031D02*
G01*
X4212590Y-7501889D01*
X4198874Y-7515352D01*
X4192015Y-7529068D01*
X4185158Y-7549642D01*
X4185158Y-7583678D01*
X4192015Y-7603997D01*
X4198874Y-7617713D01*
X4212590Y-7631429D01*
X4226052Y-7638287D01*
X4253484Y-7638287D01*
X4266945Y-7631429D01*
X4280661Y-7617713D01*
X4287520Y-7603997D01*
X4294377Y-7583678D01*
X4294377Y-7549642D01*
X4287520Y-7529068D01*
X4280661Y-7515352D01*
X4266945Y-7501889D01*
X4253484Y-7495031D01*
X4226052Y-7495031D01*
X4373372Y-7495031D02*
G01*
X4353052Y-7501889D01*
X4346193Y-7515352D01*
X4346193Y-7529068D01*
X4353052Y-7542784D01*
X4366513Y-7549642D01*
X4393945Y-7556245D01*
X4414265Y-7563104D01*
X4427981Y-7576820D01*
X4434840Y-7590536D01*
X4434840Y-7610855D01*
X4427981Y-7624571D01*
X4421124Y-7631429D01*
X4400550Y-7638287D01*
X4373372Y-7638287D01*
X4353052Y-7631429D01*
X4346193Y-7624571D01*
X4339336Y-7610855D01*
X4339336Y-7590536D01*
X4346193Y-7576820D01*
X4359656Y-7563104D01*
X4380229Y-7556245D01*
X4407408Y-7549642D01*
X4421124Y-7542784D01*
X4427981Y-7529068D01*
X4427981Y-7515352D01*
X4421124Y-7501889D01*
X4400550Y-7495031D01*
X4373372Y-7495031D01*
X4140200Y-5209031D02*
G01*
X4140200Y-5352287D01*
X4226052Y-5209031D02*
G01*
X4212590Y-5215889D01*
X4198874Y-5229352D01*
X4192015Y-5243068D01*
X4185158Y-5263642D01*
X4185158Y-5297678D01*
X4192015Y-5317997D01*
X4198874Y-5331713D01*
X4212590Y-5345429D01*
X4226052Y-5352287D01*
X4253484Y-5352287D01*
X4266945Y-5345429D01*
X4280661Y-5331713D01*
X4287520Y-5317997D01*
X4294377Y-5297678D01*
X4294377Y-5263642D01*
X4287520Y-5243068D01*
X4280661Y-5229352D01*
X4266945Y-5215889D01*
X4253484Y-5209031D01*
X4226052Y-5209031D01*
X4339336Y-5236210D02*
G01*
X4353052Y-5229352D01*
X4373372Y-5209031D01*
X4373372Y-5352287D01*
X4506975Y-5256784D02*
G01*
X4500118Y-5277104D01*
X4486656Y-5290820D01*
X4466081Y-5297678D01*
X4459224Y-5297678D01*
X4438904Y-5290820D01*
X4425188Y-5277104D01*
X4418329Y-5256784D01*
X4418329Y-5249926D01*
X4425188Y-5229352D01*
X4438904Y-5215889D01*
X4459224Y-5209031D01*
X4466081Y-5209031D01*
X4486656Y-5215889D01*
X4500118Y-5229352D01*
X4506975Y-5256784D01*
X4506975Y-5290820D01*
X4500118Y-5324855D01*
X4486656Y-5345429D01*
X4466081Y-5352287D01*
X4452365Y-5352287D01*
X4432045Y-5345429D01*
X4425188Y-5331713D01*
X4140200Y-5463031D02*
G01*
X4140200Y-5606287D01*
X4226052Y-5463031D02*
G01*
X4212590Y-5469889D01*
X4198874Y-5483352D01*
X4192015Y-5497068D01*
X4185158Y-5517642D01*
X4185158Y-5551678D01*
X4192015Y-5571997D01*
X4198874Y-5585713D01*
X4212590Y-5599429D01*
X4226052Y-5606287D01*
X4253484Y-5606287D01*
X4266945Y-5599429D01*
X4280661Y-5585713D01*
X4287520Y-5571997D01*
X4294377Y-5551678D01*
X4294377Y-5517642D01*
X4287520Y-5497068D01*
X4280661Y-5483352D01*
X4266945Y-5469889D01*
X4253484Y-5463031D01*
X4226052Y-5463031D01*
X4339336Y-5490210D02*
G01*
X4353052Y-5483352D01*
X4373372Y-5463031D01*
X4373372Y-5606287D01*
X4452365Y-5463031D02*
G01*
X4432045Y-5469889D01*
X4425188Y-5483352D01*
X4425188Y-5497068D01*
X4432045Y-5510784D01*
X4445761Y-5517642D01*
X4472940Y-5524245D01*
X4493259Y-5531104D01*
X4506975Y-5544820D01*
X4513834Y-5558536D01*
X4513834Y-5578855D01*
X4506975Y-5592571D01*
X4500118Y-5599429D01*
X4479797Y-5606287D01*
X4452365Y-5606287D01*
X4432045Y-5599429D01*
X4425188Y-5592571D01*
X4418329Y-5578855D01*
X4418329Y-5558536D01*
X4425188Y-5544820D01*
X4438904Y-5531104D01*
X4459224Y-5524245D01*
X4486656Y-5517642D01*
X4500118Y-5510784D01*
X4506975Y-5497068D01*
X4506975Y-5483352D01*
X4500118Y-5469889D01*
X4479797Y-5463031D01*
X4452365Y-5463031D01*
X4140200Y-5717031D02*
G01*
X4140200Y-5860287D01*
X4226052Y-5717031D02*
G01*
X4212590Y-5723889D01*
X4198874Y-5737352D01*
X4192015Y-5751068D01*
X4185158Y-5771642D01*
X4185158Y-5805678D01*
X4192015Y-5825997D01*
X4198874Y-5839713D01*
X4212590Y-5853429D01*
X4226052Y-5860287D01*
X4253484Y-5860287D01*
X4266945Y-5853429D01*
X4280661Y-5839713D01*
X4287520Y-5825997D01*
X4294377Y-5805678D01*
X4294377Y-5771642D01*
X4287520Y-5751068D01*
X4280661Y-5737352D01*
X4266945Y-5723889D01*
X4253484Y-5717031D01*
X4226052Y-5717031D01*
X4421124Y-5717031D02*
G01*
X4353052Y-5717031D01*
X4346193Y-5778245D01*
X4353052Y-5771642D01*
X4373372Y-5764784D01*
X4393945Y-5764784D01*
X4414265Y-5771642D01*
X4427981Y-5785104D01*
X4434840Y-5805678D01*
X4434840Y-5819394D01*
X4427981Y-5839713D01*
X4414265Y-5853429D01*
X4393945Y-5860287D01*
X4373372Y-5860287D01*
X4353052Y-5853429D01*
X4346193Y-5846571D01*
X4339336Y-5832855D01*
X4140200Y-5971031D02*
G01*
X4140200Y-6114287D01*
X4226052Y-5971031D02*
G01*
X4212590Y-5977889D01*
X4198874Y-5991352D01*
X4192015Y-6005068D01*
X4185158Y-6025642D01*
X4185158Y-6059678D01*
X4192015Y-6079997D01*
X4198874Y-6093713D01*
X4212590Y-6107429D01*
X4226052Y-6114287D01*
X4253484Y-6114287D01*
X4266945Y-6107429D01*
X4280661Y-6093713D01*
X4287520Y-6079997D01*
X4294377Y-6059678D01*
X4294377Y-6025642D01*
X4287520Y-6005068D01*
X4280661Y-5991352D01*
X4266945Y-5977889D01*
X4253484Y-5971031D01*
X4226052Y-5971031D01*
X4339336Y-5998210D02*
G01*
X4353052Y-5991352D01*
X4373372Y-5971031D01*
X4373372Y-6114287D01*
X4513834Y-5971031D02*
G01*
X4445761Y-6114287D01*
X4418329Y-5971031D02*
G01*
X4513834Y-5971031D01*
X4140200Y-6225031D02*
G01*
X4140200Y-6368287D01*
X4226052Y-6225031D02*
G01*
X4212590Y-6231889D01*
X4198874Y-6245352D01*
X4192015Y-6259068D01*
X4185158Y-6279642D01*
X4185158Y-6313678D01*
X4192015Y-6333997D01*
X4198874Y-6347713D01*
X4212590Y-6361429D01*
X4226052Y-6368287D01*
X4253484Y-6368287D01*
X4266945Y-6361429D01*
X4280661Y-6347713D01*
X4287520Y-6333997D01*
X4294377Y-6313678D01*
X4294377Y-6279642D01*
X4287520Y-6259068D01*
X4280661Y-6245352D01*
X4266945Y-6231889D01*
X4253484Y-6225031D01*
X4226052Y-6225031D01*
X4339336Y-6252210D02*
G01*
X4353052Y-6245352D01*
X4373372Y-6225031D01*
X4373372Y-6368287D01*
X4500118Y-6245352D02*
G01*
X4493259Y-6231889D01*
X4472940Y-6225031D01*
X4459224Y-6225031D01*
X4438904Y-6231889D01*
X4425188Y-6252210D01*
X4418329Y-6286245D01*
X4418329Y-6320536D01*
X4425188Y-6347713D01*
X4438904Y-6361429D01*
X4459224Y-6368287D01*
X4466081Y-6368287D01*
X4486656Y-6361429D01*
X4500118Y-6347713D01*
X4506975Y-6327394D01*
X4506975Y-6320536D01*
X4500118Y-6299962D01*
X4486656Y-6286245D01*
X4466081Y-6279642D01*
X4459224Y-6279642D01*
X4438904Y-6286245D01*
X4425188Y-6299962D01*
X4418329Y-6320536D01*
X4140200Y-4699000D02*
G01*
X4140200Y-4842255D01*
X4226052Y-4699000D02*
G01*
X4212590Y-4705857D01*
X4198874Y-4719320D01*
X4192015Y-4733036D01*
X4185158Y-4753610D01*
X4185158Y-4787645D01*
X4192015Y-4807965D01*
X4198874Y-4821681D01*
X4212590Y-4835397D01*
X4226052Y-4842255D01*
X4253484Y-4842255D01*
X4266945Y-4835397D01*
X4280661Y-4821681D01*
X4287520Y-4807965D01*
X4294377Y-4787645D01*
X4294377Y-4753610D01*
X4287520Y-4733036D01*
X4280661Y-4719320D01*
X4266945Y-4705857D01*
X4253484Y-4699000D01*
X4226052Y-4699000D01*
X4346193Y-4733036D02*
G01*
X4346193Y-4726178D01*
X4353052Y-4712715D01*
X4359656Y-4705857D01*
X4373372Y-4699000D01*
X4400550Y-4699000D01*
X4414265Y-4705857D01*
X4421124Y-4712715D01*
X4427981Y-4726178D01*
X4427981Y-4739894D01*
X4421124Y-4753610D01*
X4407408Y-4773929D01*
X4339336Y-4842255D01*
X4434840Y-4842255D01*
X4479797Y-4726178D02*
G01*
X4493259Y-4719320D01*
X4513834Y-4699000D01*
X4513834Y-4842255D01*
X4140200Y-4447031D02*
G01*
X4140200Y-4590287D01*
X4226052Y-4447031D02*
G01*
X4212590Y-4453889D01*
X4198874Y-4467352D01*
X4192015Y-4481068D01*
X4185158Y-4501642D01*
X4185158Y-4535678D01*
X4192015Y-4555997D01*
X4198874Y-4569713D01*
X4212590Y-4583429D01*
X4226052Y-4590287D01*
X4253484Y-4590287D01*
X4266945Y-4583429D01*
X4280661Y-4569713D01*
X4287520Y-4555997D01*
X4294377Y-4535678D01*
X4294377Y-4501642D01*
X4287520Y-4481068D01*
X4280661Y-4467352D01*
X4266945Y-4453889D01*
X4253484Y-4447031D01*
X4226052Y-4447031D01*
X4353052Y-4447031D02*
G01*
X4427981Y-4447031D01*
X4387088Y-4501642D01*
X4407408Y-4501642D01*
X4421124Y-4508245D01*
X4427981Y-4515104D01*
X4434840Y-4535678D01*
X4434840Y-4549394D01*
X4427981Y-4569713D01*
X4414265Y-4583429D01*
X4393945Y-4590287D01*
X4373372Y-4590287D01*
X4353052Y-4583429D01*
X4346193Y-4576571D01*
X4339336Y-4562855D01*
X4140200Y-4193031D02*
G01*
X4140200Y-4336287D01*
X4226052Y-4193031D02*
G01*
X4212590Y-4199889D01*
X4198874Y-4213352D01*
X4192015Y-4227068D01*
X4185158Y-4247642D01*
X4185158Y-4281678D01*
X4192015Y-4301997D01*
X4198874Y-4315713D01*
X4212590Y-4329429D01*
X4226052Y-4336287D01*
X4253484Y-4336287D01*
X4266945Y-4329429D01*
X4280661Y-4315713D01*
X4287520Y-4301997D01*
X4294377Y-4281678D01*
X4294377Y-4247642D01*
X4287520Y-4227068D01*
X4280661Y-4213352D01*
X4266945Y-4199889D01*
X4253484Y-4193031D01*
X4226052Y-4193031D01*
X4339336Y-4220210D02*
G01*
X4353052Y-4213352D01*
X4373372Y-4193031D01*
X4373372Y-4336287D01*
X4140200Y-3937000D02*
G01*
X4140200Y-4080255D01*
X4226052Y-3937000D02*
G01*
X4212590Y-3943857D01*
X4198874Y-3957320D01*
X4192015Y-3971036D01*
X4185158Y-3991610D01*
X4185158Y-4025645D01*
X4192015Y-4045965D01*
X4198874Y-4059681D01*
X4212590Y-4073397D01*
X4226052Y-4080255D01*
X4253484Y-4080255D01*
X4266945Y-4073397D01*
X4280661Y-4059681D01*
X4287520Y-4045965D01*
X4294377Y-4025645D01*
X4294377Y-3991610D01*
X4287520Y-3971036D01*
X4280661Y-3957320D01*
X4266945Y-3943857D01*
X4253484Y-3937000D01*
X4226052Y-3937000D01*
X4346193Y-3971036D02*
G01*
X4346193Y-3964178D01*
X4353052Y-3950715D01*
X4359656Y-3943857D01*
X4373372Y-3937000D01*
X4400550Y-3937000D01*
X4414265Y-3943857D01*
X4421124Y-3950715D01*
X4427981Y-3964178D01*
X4427981Y-3977894D01*
X4421124Y-3991610D01*
X4407408Y-4011929D01*
X4339336Y-4080255D01*
X4434840Y-4080255D01*
X4486656Y-3971036D02*
G01*
X4486656Y-3964178D01*
X4493259Y-3950715D01*
X4500118Y-3943857D01*
X4513834Y-3937000D01*
X4541011Y-3937000D01*
X4554727Y-3943857D01*
X4561586Y-3950715D01*
X4568443Y-3964178D01*
X4568443Y-3977894D01*
X4561586Y-3991610D01*
X4547870Y-4011929D01*
X4479797Y-4080255D01*
X4575302Y-4080255D01*
X4140200Y-3685031D02*
G01*
X4140200Y-3828287D01*
X4226052Y-3685031D02*
G01*
X4212590Y-3691889D01*
X4198874Y-3705352D01*
X4192015Y-3719068D01*
X4185158Y-3739642D01*
X4185158Y-3773678D01*
X4192015Y-3793997D01*
X4198874Y-3807713D01*
X4212590Y-3821429D01*
X4226052Y-3828287D01*
X4253484Y-3828287D01*
X4266945Y-3821429D01*
X4280661Y-3807713D01*
X4287520Y-3793997D01*
X4294377Y-3773678D01*
X4294377Y-3739642D01*
X4287520Y-3719068D01*
X4280661Y-3705352D01*
X4266945Y-3691889D01*
X4253484Y-3685031D01*
X4226052Y-3685031D01*
X4346193Y-3719068D02*
G01*
X4346193Y-3712210D01*
X4353052Y-3698747D01*
X4359656Y-3691889D01*
X4373372Y-3685031D01*
X4400550Y-3685031D01*
X4414265Y-3691889D01*
X4421124Y-3698747D01*
X4427981Y-3712210D01*
X4427981Y-3725926D01*
X4421124Y-3739642D01*
X4407408Y-3759962D01*
X4339336Y-3828287D01*
X4434840Y-3828287D01*
X4493259Y-3685031D02*
G01*
X4568443Y-3685031D01*
X4527550Y-3739642D01*
X4547870Y-3739642D01*
X4561586Y-3746245D01*
X4568443Y-3753104D01*
X4575302Y-3773678D01*
X4575302Y-3787394D01*
X4568443Y-3807713D01*
X4554727Y-3821429D01*
X4534408Y-3828287D01*
X4513834Y-3828287D01*
X4493259Y-3821429D01*
X4486656Y-3814571D01*
X4479797Y-3800855D01*
X1042162Y-6767068D02*
G01*
X1035304Y-6753352D01*
X1021587Y-6739889D01*
X1007871Y-6733031D01*
X980694Y-6733031D01*
X966978Y-6739889D01*
X953515Y-6753352D01*
X946657Y-6767068D01*
X939800Y-6787642D01*
X939800Y-6821678D01*
X946657Y-6841997D01*
X953515Y-6855713D01*
X966978Y-6869429D01*
X980694Y-6876287D01*
X1007871Y-6876287D01*
X1021587Y-6869429D01*
X1035304Y-6855713D01*
X1042162Y-6841997D01*
X1042162Y-6821678D01*
X1007871Y-6821678D02*
G01*
X1042162Y-6821678D01*
X1087120Y-6733031D02*
G01*
X1087120Y-6876287D01*
X1087120Y-6733031D02*
G01*
X1182623Y-6876287D01*
X1182623Y-6733031D02*
G01*
X1182623Y-6876287D01*
X1227581Y-6733031D02*
G01*
X1227581Y-6876287D01*
X1227581Y-6733031D02*
G01*
X1275334Y-6733031D01*
X1295654Y-6739889D01*
X1309370Y-6753352D01*
X1316228Y-6767068D01*
X1323086Y-6787642D01*
X1323086Y-6821678D01*
X1316228Y-6841997D01*
X1309370Y-6855713D01*
X1295654Y-6869429D01*
X1275334Y-6876287D01*
X1227581Y-6876287D01*
X1034287Y-8000997D02*
G01*
X966215Y-8000997D01*
X959357Y-8062211D01*
X966215Y-8055607D01*
X986536Y-8048749D01*
X1007110Y-8048749D01*
X1027429Y-8055607D01*
X1041145Y-8069069D01*
X1048004Y-8089643D01*
X1048004Y-8103359D01*
X1041145Y-8123679D01*
X1027429Y-8137395D01*
X1007110Y-8144253D01*
X986536Y-8144253D01*
X966215Y-8137395D01*
X959357Y-8130537D01*
X952500Y-8116821D01*
X1092962Y-8000997D02*
G01*
X1147571Y-8144253D01*
X1201928Y-8000997D02*
G01*
X1147571Y-8144253D01*
X4217161Y-3465068D02*
G01*
X4210304Y-3451352D01*
X4196588Y-3437889D01*
X4182872Y-3431031D01*
X4155693Y-3431031D01*
X4141977Y-3437889D01*
X4128515Y-3451352D01*
X4121658Y-3465068D01*
X4114800Y-3485642D01*
X4114800Y-3519678D01*
X4121658Y-3539997D01*
X4128515Y-3553713D01*
X4141977Y-3567429D01*
X4155693Y-3574287D01*
X4182872Y-3574287D01*
X4196588Y-3567429D01*
X4210304Y-3553713D01*
X4217161Y-3539997D01*
X4217161Y-3519678D01*
X4182872Y-3519678D02*
G01*
X4217161Y-3519678D01*
X4262120Y-3431031D02*
G01*
X4262120Y-3574287D01*
X4262120Y-3431031D02*
G01*
X4357624Y-3574287D01*
X4357624Y-3431031D02*
G01*
X4357624Y-3574287D01*
X4402581Y-3431031D02*
G01*
X4402581Y-3574287D01*
X4402581Y-3431031D02*
G01*
X4450334Y-3431031D01*
X4470654Y-3437889D01*
X4484370Y-3451352D01*
X4491227Y-3465068D01*
X4498086Y-3485642D01*
X4498086Y-3519678D01*
X4491227Y-3539997D01*
X4484370Y-3553713D01*
X4470654Y-3567429D01*
X4450334Y-3574287D01*
X4402581Y-3574287D01*
X4229861Y-4987033D02*
G01*
X4223004Y-4973317D01*
X4209288Y-4959855D01*
X4195572Y-4952997D01*
X4168393Y-4952997D01*
X4154677Y-4959855D01*
X4141215Y-4973317D01*
X4134358Y-4987033D01*
X4127500Y-5007607D01*
X4127500Y-5041643D01*
X4134358Y-5061963D01*
X4141215Y-5075679D01*
X4154677Y-5089395D01*
X4168393Y-5096253D01*
X4195572Y-5096253D01*
X4209288Y-5089395D01*
X4223004Y-5075679D01*
X4229861Y-5061963D01*
X4229861Y-5041643D01*
X4195572Y-5041643D02*
G01*
X4229861Y-5041643D01*
X4274820Y-4952997D02*
G01*
X4274820Y-5096253D01*
X4274820Y-4952997D02*
G01*
X4370324Y-5096253D01*
X4370324Y-4952997D02*
G01*
X4370324Y-5096253D01*
X4415281Y-4952997D02*
G01*
X4415281Y-5096253D01*
X4415281Y-4952997D02*
G01*
X4463034Y-4952997D01*
X4483354Y-4959855D01*
X4497070Y-4973317D01*
X4503927Y-4987033D01*
X4510786Y-5007607D01*
X4510786Y-5041643D01*
X4503927Y-5061963D01*
X4497070Y-5075679D01*
X4483354Y-5089395D01*
X4463034Y-5096253D01*
X4415281Y-5096253D01*
X4140200Y-8001000D02*
G01*
X4140200Y-8144255D01*
X4226052Y-8001000D02*
G01*
X4212590Y-8007858D01*
X4198874Y-8021320D01*
X4192015Y-8035036D01*
X4185158Y-8055610D01*
X4185158Y-8089645D01*
X4192015Y-8109965D01*
X4198874Y-8123681D01*
X4212590Y-8137397D01*
X4226052Y-8144255D01*
X4253484Y-8144255D01*
X4266945Y-8137397D01*
X4280661Y-8123681D01*
X4287520Y-8109965D01*
X4294377Y-8089645D01*
X4294377Y-8055610D01*
X4287520Y-8035036D01*
X4280661Y-8021320D01*
X4266945Y-8007858D01*
X4253484Y-8001000D01*
X4226052Y-8001000D01*
X4421124Y-8021320D02*
G01*
X4414265Y-8007858D01*
X4393945Y-8001000D01*
X4380229Y-8001000D01*
X4359656Y-8007858D01*
X4346193Y-8028178D01*
X4339336Y-8062213D01*
X4339336Y-8096504D01*
X4346193Y-8123681D01*
X4359656Y-8137397D01*
X4380229Y-8144255D01*
X4387088Y-8144255D01*
X4407408Y-8137397D01*
X4421124Y-8123681D01*
X4427981Y-8103362D01*
X4427981Y-8096504D01*
X4421124Y-8075929D01*
X4407408Y-8062213D01*
X4387088Y-8055610D01*
X4380229Y-8055610D01*
X4359656Y-8062213D01*
X4346193Y-8075929D01*
X4339336Y-8096504D01*
X4140200Y-7747000D02*
G01*
X4140200Y-7890255D01*
X4226052Y-7747000D02*
G01*
X4212590Y-7753858D01*
X4198874Y-7767320D01*
X4192015Y-7781036D01*
X4185158Y-7801610D01*
X4185158Y-7835645D01*
X4192015Y-7855965D01*
X4198874Y-7869681D01*
X4212590Y-7883397D01*
X4226052Y-7890255D01*
X4253484Y-7890255D01*
X4266945Y-7883397D01*
X4280661Y-7869681D01*
X4287520Y-7855965D01*
X4294377Y-7835645D01*
X4294377Y-7801610D01*
X4287520Y-7781036D01*
X4280661Y-7767320D01*
X4266945Y-7753858D01*
X4253484Y-7747000D01*
X4226052Y-7747000D01*
X4434840Y-7747000D02*
G01*
X4366513Y-7890255D01*
X4339336Y-7747000D02*
G01*
X4434840Y-7747000D01*
D10*
X1865884Y-2057400D02*
G01*
X1943861Y-2057400D01*
X1959356Y-2052320D01*
X1969770Y-2041905D01*
X1974850Y-2026157D01*
X1974850Y-2015744D01*
X1969770Y-2000250D01*
X1959356Y-1989836D01*
X1943861Y-1984755D01*
X1865884Y-1984755D01*
X1891792Y-1945131D02*
G01*
X1886712Y-1945131D01*
X1876297Y-1940052D01*
X1870963Y-1934718D01*
X1865884Y-1924304D01*
X1865884Y-1903729D01*
X1870963Y-1893315D01*
X1876297Y-1887981D01*
X1886712Y-1882902D01*
X1897126Y-1882902D01*
X1907539Y-1887981D01*
X1923034Y-1898395D01*
X1974850Y-1950465D01*
X1974850Y-1877568D01*
X2183638Y-2438400D02*
G01*
X2256536Y-2410713D01*
X2183638Y-2383028D02*
G01*
X2256536Y-2410713D01*
X2183638Y-2360168D02*
G01*
X2256536Y-2360168D01*
X2183638Y-2360168D02*
G01*
X2183638Y-2335784D01*
X2187193Y-2325370D01*
X2194052Y-2318512D01*
X2200909Y-2315210D01*
X2211324Y-2311654D01*
X2228850Y-2311654D01*
X2239009Y-2315210D01*
X2246122Y-2318512D01*
X2252979Y-2325370D01*
X2256536Y-2335784D01*
X2256536Y-2360168D01*
X2183638Y-2288794D02*
G01*
X2256536Y-2288794D01*
X2183638Y-2288794D02*
G01*
X2183638Y-2264410D01*
X2187193Y-2254250D01*
X2194052Y-2247137D01*
X2200909Y-2243836D01*
X2211324Y-2240279D01*
X2228850Y-2240279D01*
X2239009Y-2243836D01*
X2246122Y-2247137D01*
X2252979Y-2254250D01*
X2256536Y-2264410D01*
X2256536Y-2288794D01*
X2454909Y-2386329D02*
G01*
X2448052Y-2389886D01*
X2441193Y-2396744D01*
X2437638Y-2403855D01*
X2437638Y-2417571D01*
X2441193Y-2424429D01*
X2448052Y-2431542D01*
X2454909Y-2434844D01*
X2465324Y-2438400D01*
X2482850Y-2438400D01*
X2493009Y-2434844D01*
X2500122Y-2431542D01*
X2506979Y-2424429D01*
X2510536Y-2417571D01*
X2510536Y-2403855D01*
X2506979Y-2396744D01*
X2500122Y-2389886D01*
X2493009Y-2386329D01*
X2482850Y-2386329D01*
X2482850Y-2403855D02*
G01*
X2482850Y-2386329D01*
X2437638Y-2363470D02*
G01*
X2510536Y-2363470D01*
X2437638Y-2363470D02*
G01*
X2510536Y-2315210D01*
X2437638Y-2315210D02*
G01*
X2510536Y-2315210D01*
X2437638Y-2292350D02*
G01*
X2510536Y-2292350D01*
X2437638Y-2292350D02*
G01*
X2437638Y-2267965D01*
X2441193Y-2257552D01*
X2448052Y-2250694D01*
X2454909Y-2247137D01*
X2465324Y-2243836D01*
X2482850Y-2243836D01*
X2493009Y-2247137D01*
X2500122Y-2250694D01*
X2506979Y-2257552D01*
X2510536Y-2267965D01*
X2510536Y-2292350D01*
X2702052Y-2389886D02*
G01*
X2695193Y-2396744D01*
X2691638Y-2407157D01*
X2691638Y-2421128D01*
X2695193Y-2431542D01*
X2702052Y-2438400D01*
X2708909Y-2438400D01*
X2716022Y-2434844D01*
X2719324Y-2431542D01*
X2722879Y-2424429D01*
X2729738Y-2403855D01*
X2733293Y-2396744D01*
X2736850Y-2393442D01*
X2743708Y-2389886D01*
X2754122Y-2389886D01*
X2760979Y-2396744D01*
X2764536Y-2407157D01*
X2764536Y-2421128D01*
X2760979Y-2431542D01*
X2754122Y-2438400D01*
X2708909Y-2315210D02*
G01*
X2702052Y-2318512D01*
X2695193Y-2325370D01*
X2691638Y-2332481D01*
X2691638Y-2346197D01*
X2695193Y-2353310D01*
X2702052Y-2360168D01*
X2708909Y-2363470D01*
X2719324Y-2367026D01*
X2736850Y-2367026D01*
X2747009Y-2363470D01*
X2754122Y-2360168D01*
X2760979Y-2353310D01*
X2764536Y-2346197D01*
X2764536Y-2332481D01*
X2760979Y-2325370D01*
X2754122Y-2318512D01*
X2747009Y-2315210D01*
X2691638Y-2292350D02*
G01*
X2764536Y-2292350D01*
X2764536Y-2292350D02*
G01*
X2764536Y-2250694D01*
X2956052Y-2389886D02*
G01*
X2949193Y-2396744D01*
X2945638Y-2407157D01*
X2945638Y-2421128D01*
X2949193Y-2431542D01*
X2956052Y-2438400D01*
X2962909Y-2438400D01*
X2970022Y-2434844D01*
X2973324Y-2431542D01*
X2976879Y-2424429D01*
X2983738Y-2403855D01*
X2987293Y-2396744D01*
X2990850Y-2393442D01*
X2997708Y-2389886D01*
X3008122Y-2389886D01*
X3014979Y-2396744D01*
X3018536Y-2407157D01*
X3018536Y-2421128D01*
X3014979Y-2431542D01*
X3008122Y-2438400D01*
X2945638Y-2367026D02*
G01*
X3018536Y-2367026D01*
X2945638Y-2367026D02*
G01*
X2945638Y-2342895D01*
X2949193Y-2332481D01*
X2956052Y-2325370D01*
X2962909Y-2322068D01*
X2973324Y-2318512D01*
X2990850Y-2318512D01*
X3001009Y-2322068D01*
X3008122Y-2325370D01*
X3014979Y-2332481D01*
X3018536Y-2342895D01*
X3018536Y-2367026D01*
X2945638Y-2267965D02*
G01*
X3018536Y-2295652D01*
X2945638Y-2267965D02*
G01*
X3018536Y-2240279D01*
X2994152Y-2285237D02*
G01*
X2994152Y-2250694D01*
X3199638Y-2410713D02*
G01*
X3272536Y-2438400D01*
X3199638Y-2410713D02*
G01*
X3272536Y-2383028D01*
X3248152Y-2427986D02*
G01*
X3248152Y-2393442D01*
X3199638Y-2360168D02*
G01*
X3272536Y-2360168D01*
X3199638Y-2360168D02*
G01*
X3199638Y-2335784D01*
X3203193Y-2325370D01*
X3210052Y-2318512D01*
X3216909Y-2315210D01*
X3227324Y-2311654D01*
X3244850Y-2311654D01*
X3255009Y-2315210D01*
X3262122Y-2318512D01*
X3268979Y-2325370D01*
X3272536Y-2335784D01*
X3272536Y-2360168D01*
X3199638Y-2288794D02*
G01*
X3272536Y-2288794D01*
X3199638Y-2288794D02*
G01*
X3199638Y-2264410D01*
X3203193Y-2254250D01*
X3210052Y-2247137D01*
X3216909Y-2243836D01*
X3227324Y-2240279D01*
X3244850Y-2240279D01*
X3255009Y-2243836D01*
X3262122Y-2247137D01*
X3268979Y-2254250D01*
X3272536Y-2264410D01*
X3272536Y-2288794D01*
X3199638Y-2217420D02*
G01*
X3272536Y-2217420D01*
X3199638Y-2217420D02*
G01*
X3199638Y-2186178D01*
X3203193Y-2175763D01*
X3206750Y-2172462D01*
X3213608Y-2168905D01*
X3220465Y-2168905D01*
X3227324Y-2172462D01*
X3230879Y-2175763D01*
X3234436Y-2186178D01*
X3234436Y-2217420D01*
X3234436Y-2193289D02*
G01*
X3272536Y-2168905D01*
X3453638Y-2410713D02*
G01*
X3526536Y-2438400D01*
X3453638Y-2410713D02*
G01*
X3526536Y-2383028D01*
X3502152Y-2427986D02*
G01*
X3502152Y-2393442D01*
X3453638Y-2360168D02*
G01*
X3526536Y-2360168D01*
X3526536Y-2360168D02*
G01*
X3526536Y-2318512D01*
X3453638Y-2295652D02*
G01*
X3526536Y-2295652D01*
X3453638Y-2295652D02*
G01*
X3453638Y-2264410D01*
X3457193Y-2254250D01*
X3460750Y-2250694D01*
X3467608Y-2247137D01*
X3474465Y-2247137D01*
X3481324Y-2250694D01*
X3484879Y-2254250D01*
X3488436Y-2264410D01*
X3488436Y-2295652D01*
X3488436Y-2271521D02*
G01*
X3526536Y-2247137D01*
X3453638Y-2200147D02*
G01*
X3526536Y-2200147D01*
X3453638Y-2224278D02*
G01*
X3453638Y-2175763D01*
X3707638Y-2410713D02*
G01*
X3780536Y-2438400D01*
X3707638Y-2410713D02*
G01*
X3780536Y-2383028D01*
X3756152Y-2427986D02*
G01*
X3756152Y-2393442D01*
X3707638Y-2339339D02*
G01*
X3711193Y-2349754D01*
X3721608Y-2356612D01*
X3738879Y-2360168D01*
X3749293Y-2360168D01*
X3766565Y-2356612D01*
X3776979Y-2349754D01*
X3780536Y-2339339D01*
X3780536Y-2332481D01*
X3776979Y-2322068D01*
X3766565Y-2315210D01*
X3749293Y-2311654D01*
X3738879Y-2311654D01*
X3721608Y-2315210D01*
X3711193Y-2322068D01*
X3707638Y-2332481D01*
X3707638Y-2339339D01*
X3961638Y-2410713D02*
G01*
X4034536Y-2438400D01*
X3961638Y-2410713D02*
G01*
X4034536Y-2383028D01*
X4010152Y-2427986D02*
G01*
X4010152Y-2393442D01*
X3975608Y-2360168D02*
G01*
X3972052Y-2353310D01*
X3961638Y-2342895D01*
X4034536Y-2342895D01*
X4215638Y-2410713D02*
G01*
X4288536Y-2438400D01*
X4215638Y-2410713D02*
G01*
X4288536Y-2383028D01*
X4264152Y-2427986D02*
G01*
X4264152Y-2393442D01*
X4232909Y-2356612D02*
G01*
X4229608Y-2356612D01*
X4222750Y-2353310D01*
X4219193Y-2349754D01*
X4215638Y-2342895D01*
X4215638Y-2328926D01*
X4219193Y-2322068D01*
X4222750Y-2318512D01*
X4229608Y-2315210D01*
X4236465Y-2315210D01*
X4243324Y-2318512D01*
X4253738Y-2325370D01*
X4288536Y-2360168D01*
X4288536Y-2311654D01*
X4469638Y-2410713D02*
G01*
X4542536Y-2438400D01*
X4469638Y-2410713D02*
G01*
X4542536Y-2383028D01*
X4518152Y-2427986D02*
G01*
X4518152Y-2393442D01*
X4469638Y-2353310D02*
G01*
X4469638Y-2315210D01*
X4497324Y-2335784D01*
X4497324Y-2325370D01*
X4500879Y-2318512D01*
X4504436Y-2315210D01*
X4514850Y-2311654D01*
X4521708Y-2311654D01*
X4532122Y-2315210D01*
X4538979Y-2322068D01*
X4542536Y-2332481D01*
X4542536Y-2342895D01*
X4538979Y-2353310D01*
X4535424Y-2356612D01*
X4528565Y-2360168D01*
X5943600Y-6846315D02*
G01*
X5943600Y-6737350D01*
X5943600Y-6846315D02*
G01*
X5896863Y-6846315D01*
X5881370Y-6841236D01*
X5876036Y-6835902D01*
X5870956Y-6825487D01*
X5870956Y-6815073D01*
X5876036Y-6804660D01*
X5881370Y-6799579D01*
X5896863Y-6794500D01*
X5943600Y-6794500D01*
X5907277Y-6794500D02*
G01*
X5870956Y-6737350D01*
X5784595Y-6846315D02*
G01*
X5836665Y-6773671D01*
X5758688Y-6773671D01*
X5784595Y-6846315D02*
G01*
X5784595Y-6737350D01*
X5993384Y-3683000D02*
G01*
X6102350Y-3683000D01*
X5993384Y-3683000D02*
G01*
X5993384Y-3636263D01*
X5998463Y-3620770D01*
X6003797Y-3615436D01*
X6014211Y-3610355D01*
X6024625Y-3610355D01*
X6035040Y-3615436D01*
X6040120Y-3620770D01*
X6045200Y-3636263D01*
X6045200Y-3683000D01*
X6045200Y-3646678D02*
G01*
X6102350Y-3610355D01*
X6014211Y-3576065D02*
G01*
X6008877Y-3565652D01*
X5993384Y-3549904D01*
X6102350Y-3549904D01*
X5726684Y-5054600D02*
G01*
X5835650Y-5054600D01*
X5726684Y-5054600D02*
G01*
X5726684Y-5007863D01*
X5731763Y-4992370D01*
X5737097Y-4987036D01*
X5747511Y-4981955D01*
X5757925Y-4981955D01*
X5768340Y-4987036D01*
X5773420Y-4992370D01*
X5778500Y-5007863D01*
X5778500Y-5054600D01*
X5778500Y-5018278D02*
G01*
X5835650Y-4981955D01*
X5752591Y-4942331D02*
G01*
X5747511Y-4942331D01*
X5737097Y-4937252D01*
X5731763Y-4931918D01*
X5726684Y-4921504D01*
X5726684Y-4900929D01*
X5731763Y-4890515D01*
X5737097Y-4885181D01*
X5747511Y-4880102D01*
X5757925Y-4880102D01*
X5768340Y-4885181D01*
X5783834Y-4895595D01*
X5835650Y-4947665D01*
X5835650Y-4874768D01*
X6121400Y-6071615D02*
G01*
X6121400Y-5962650D01*
X6121400Y-6071615D02*
G01*
X6074663Y-6071615D01*
X6059170Y-6066536D01*
X6053836Y-6061202D01*
X6048756Y-6050787D01*
X6048756Y-6040373D01*
X6053836Y-6029960D01*
X6059170Y-6024879D01*
X6074663Y-6019800D01*
X6121400Y-6019800D01*
X6085077Y-6019800D02*
G01*
X6048756Y-5962650D01*
X6004052Y-6071615D02*
G01*
X5946902Y-6071615D01*
X5977890Y-6029960D01*
X5962395Y-6029960D01*
X5951981Y-6024879D01*
X5946902Y-6019800D01*
X5941568Y-6004052D01*
X5941568Y-5993637D01*
X5946902Y-5978144D01*
X5957315Y-5967729D01*
X5972809Y-5962650D01*
X5988304Y-5962650D01*
X6004052Y-5967729D01*
X6009131Y-5972810D01*
X6014465Y-5983223D01*
X5208015Y-4318000D02*
G01*
X5099050Y-4318000D01*
X5208015Y-4318000D02*
G01*
X5208015Y-4364736D01*
X5202936Y-4380229D01*
X5197602Y-4385563D01*
X5187188Y-4390644D01*
X5176774Y-4390644D01*
X5166359Y-4385563D01*
X5161279Y-4380229D01*
X5156200Y-4364736D01*
X5156200Y-4318000D01*
X5156200Y-4354321D02*
G01*
X5099050Y-4390644D01*
X5208015Y-4487418D02*
G01*
X5208015Y-4435347D01*
X5161279Y-4430268D01*
X5166359Y-4435347D01*
X5171693Y-4451095D01*
X5171693Y-4466589D01*
X5166359Y-4482084D01*
X5156200Y-4492497D01*
X5140452Y-4497831D01*
X5130038Y-4497831D01*
X5114543Y-4492497D01*
X5104129Y-4482084D01*
X5099050Y-4466589D01*
X5099050Y-4451095D01*
X5104129Y-4435347D01*
X5109209Y-4430268D01*
X5119624Y-4424934D01*
X5462015Y-5334000D02*
G01*
X5353050Y-5334000D01*
X5462015Y-5334000D02*
G01*
X5462015Y-5380736D01*
X5456936Y-5396229D01*
X5451602Y-5401563D01*
X5441188Y-5406644D01*
X5430774Y-5406644D01*
X5420359Y-5401563D01*
X5415279Y-5396229D01*
X5410200Y-5380736D01*
X5410200Y-5334000D01*
X5410200Y-5370321D02*
G01*
X5353050Y-5406644D01*
X5446522Y-5503418D02*
G01*
X5456936Y-5498084D01*
X5462015Y-5482589D01*
X5462015Y-5472176D01*
X5456936Y-5456681D01*
X5441188Y-5446268D01*
X5415279Y-5440934D01*
X5389372Y-5440934D01*
X5368543Y-5446268D01*
X5358129Y-5456681D01*
X5353050Y-5472176D01*
X5353050Y-5477510D01*
X5358129Y-5493004D01*
X5368543Y-5503418D01*
X5384038Y-5508497D01*
X5389372Y-5508497D01*
X5404865Y-5503418D01*
X5415279Y-5493004D01*
X5420359Y-5477510D01*
X5420359Y-5472176D01*
X5415279Y-5456681D01*
X5404865Y-5446268D01*
X5389372Y-5440934D01*
X5054600Y-6135115D02*
G01*
X5054600Y-6026150D01*
X5054600Y-6135115D02*
G01*
X5007863Y-6135115D01*
X4992370Y-6130036D01*
X4987036Y-6124702D01*
X4981956Y-6114287D01*
X4981956Y-6103873D01*
X4987036Y-6093460D01*
X4992370Y-6088379D01*
X5007863Y-6083300D01*
X5054600Y-6083300D01*
X5018277Y-6083300D02*
G01*
X4981956Y-6026150D01*
X4874768Y-6135115D02*
G01*
X4926838Y-6026150D01*
X4947665Y-6135115D02*
G01*
X4874768Y-6135115D01*
X5054600Y-6833615D02*
G01*
X5054600Y-6724650D01*
X5054600Y-6833615D02*
G01*
X5007863Y-6833615D01*
X4992370Y-6828536D01*
X4987036Y-6823202D01*
X4981956Y-6812787D01*
X4981956Y-6802373D01*
X4987036Y-6791960D01*
X4992370Y-6786879D01*
X5007863Y-6781800D01*
X5054600Y-6781800D01*
X5018277Y-6781800D02*
G01*
X4981956Y-6724650D01*
X4921504Y-6833615D02*
G01*
X4937252Y-6828536D01*
X4942331Y-6818121D01*
X4942331Y-6807708D01*
X4937252Y-6797294D01*
X4926838Y-6791960D01*
X4906009Y-6786879D01*
X4890515Y-6781800D01*
X4880102Y-6771386D01*
X4874768Y-6760971D01*
X4874768Y-6745223D01*
X4880102Y-6734810D01*
X4885181Y-6729729D01*
X4900929Y-6724650D01*
X4921504Y-6724650D01*
X4937252Y-6729729D01*
X4942331Y-6734810D01*
X4947665Y-6745223D01*
X4947665Y-6760971D01*
X4942331Y-6771386D01*
X4931918Y-6781800D01*
X4916424Y-6786879D01*
X4895595Y-6791960D01*
X4885181Y-6797294D01*
X4880102Y-6807708D01*
X4880102Y-6818121D01*
X4885181Y-6828536D01*
X4900929Y-6833615D01*
X4921504Y-6833615D01*
D12*
X2903758Y-789675D02*
G01*
X3951884Y-789584D01*
X2903758Y-789675D02*
G01*
X2903758Y-1434960D01*
X3953738Y-1434960D02*
G01*
X3953738Y-789546D01*
X3174748Y-1434960D02*
G01*
X3174748Y-799960D01*
X3428748Y-789675D02*
G01*
X3428748Y-1434960D01*
X3682748Y-1434960D02*
G01*
X3682748Y-799960D01*
X2903758Y-1439661D02*
G01*
X3739131Y-1439786D01*
X3953738Y-1439661D01*
X1462900Y-8227199D02*
G01*
X1462900Y-3355200D01*
X1462900Y-3355200D02*
G01*
X4048899Y-3355200D01*
X4048899Y-3355200D02*
G01*
X4048899Y-8227199D01*
X4048899Y-8227199D02*
G01*
X1462900Y-8227199D01*
X2380894Y-8077200D02*
G01*
X3130905Y-8077200D01*
X3130905Y-8377199D01*
X2380894Y-8377199D01*
X2380894Y-8077200D01*
X4800600Y-2946400D02*
G01*
X2006600Y-2946400D01*
X2006600Y-1168400D01*
X4800600Y-1168400D01*
X4800600Y-2946400D01*
X3594100Y-2628900D02*
G01*
X3657600Y-2692400D01*
X3721100Y-2628900D01*
X3848100Y-2628900D01*
X3911600Y-2692400D01*
X3975100Y-2628900D01*
X4102100Y-2628900D01*
X4165600Y-2692400D01*
X4229100Y-2628900D01*
X4356100Y-2628900D01*
X4419600Y-2692400D01*
X4483100Y-2628900D01*
X4610100Y-2628900D01*
X4673600Y-2692400D01*
X4673600Y-2819400D01*
X4610100Y-2882900D01*
X4483100Y-2882900D01*
X4419600Y-2819400D01*
X4356100Y-2882900D01*
X4229100Y-2882900D01*
X4165600Y-2819400D01*
X4102100Y-2882900D01*
X3975100Y-2882900D01*
X3911600Y-2819400D01*
X3848100Y-2882900D01*
X3721100Y-2882900D01*
X3657600Y-2819400D01*
X3594100Y-2882900D01*
X3467100Y-2882900D01*
X3403600Y-2819400D01*
X3340100Y-2882900D01*
X3213100Y-2882900D01*
X3149600Y-2819400D01*
X3086100Y-2882900D01*
X2959100Y-2882900D01*
X2895600Y-2819400D01*
X2832100Y-2882900D01*
X2705100Y-2882900D01*
X2641600Y-2819400D01*
X2578100Y-2882900D01*
X2451100Y-2882900D01*
X2387600Y-2819400D01*
X2324100Y-2882900D01*
X2197100Y-2882900D01*
X2133600Y-2819400D01*
X2133600Y-2692400D01*
X2197100Y-2628900D01*
X2324100Y-2628900D01*
X2387600Y-2692400D01*
X2451100Y-2628900D01*
X2578100Y-2628900D01*
X2641600Y-2692400D01*
X2705100Y-2628900D01*
X2832100Y-2628900D01*
X2895600Y-2692400D01*
X2959100Y-2628900D01*
X3086100Y-2628900D01*
X3149600Y-2692400D01*
X3213100Y-2628900D01*
X3340100Y-2628900D01*
X3403600Y-2692400D01*
X3467100Y-2628900D01*
X3594100Y-2628900D01*
D10*
X5848479Y-6470690D02*
G01*
X5712487Y-6470690D01*
X5712487Y-6686509D01*
X5848479Y-6686509D01*
X6038720Y-6470690D02*
G01*
X6174712Y-6470690D01*
X6174712Y-6686509D01*
X6038720Y-6686509D01*
X6369009Y-3587879D02*
G01*
X6369009Y-3451887D01*
X6153190Y-3451887D01*
X6153190Y-3587879D01*
X6369009Y-3778120D02*
G01*
X6369009Y-3914112D01*
X6153190Y-3914112D01*
X6153190Y-3778120D01*
X6102309Y-4959479D02*
G01*
X6102309Y-4823487D01*
X5886490Y-4823487D01*
X5886490Y-4959479D01*
X6102309Y-5149720D02*
G01*
X6102309Y-5285712D01*
X5886490Y-5285712D01*
X5886490Y-5149720D01*
X6026279Y-5695990D02*
G01*
X5890287Y-5695990D01*
X5890287Y-5911809D01*
X6026279Y-5911809D01*
X6216520Y-5695990D02*
G01*
X6352512Y-5695990D01*
X6352512Y-5911809D01*
X6216520Y-5911809D01*
X4832390Y-4413120D02*
G01*
X4832390Y-4549112D01*
X5048209Y-4549112D01*
X5048209Y-4413120D01*
X4832390Y-4222879D02*
G01*
X4832390Y-4086887D01*
X5048209Y-4086887D01*
X5048209Y-4222879D01*
X5086390Y-5429120D02*
G01*
X5086390Y-5565112D01*
X5302209Y-5565112D01*
X5302209Y-5429120D01*
X5086390Y-5238879D02*
G01*
X5086390Y-5102887D01*
X5302209Y-5102887D01*
X5302209Y-5238879D01*
X4959479Y-5759490D02*
G01*
X4823487Y-5759490D01*
X4823487Y-5975309D01*
X4959479Y-5975309D01*
X5149720Y-5759490D02*
G01*
X5285712Y-5759490D01*
X5285712Y-5975309D01*
X5149720Y-5975309D01*
X4959479Y-6457990D02*
G01*
X4823487Y-6457990D01*
X4823487Y-6673809D01*
X4959479Y-6673809D01*
X5149720Y-6457990D02*
G01*
X5285712Y-6457990D01*
X5285712Y-6673809D01*
X5149720Y-6673809D01*
M02*
