G04 Layer: TopPasteMaskLayer*
G04 EasyEDA v6.5.51, 2025-10-07 15:43:34*
G04 065a6221327546c7852400a8f05eee82,a6cf4550276c400b965b925ba5ea59c0,10*
G04 Gerber Generator version 0.2*
G04 Scale: 100 percent, Rotated: No, Reflected: No *
G04 Dimensions in millimeters *
G04 leading zeros omitted , absolute positions ,4 integer and 5 decimal *
%FSLAX45Y45*%
%MOMM*%

%ADD10C,0.0111*%

%LPD*%
G36*
X5745327Y-6493560D02*
G01*
X5735370Y-6503568D01*
X5735370Y-6653631D01*
X5745327Y-6663639D01*
X5846114Y-6663639D01*
X5856122Y-6653631D01*
X5856122Y-6617512D01*
X5846114Y-6607505D01*
X5825032Y-6607505D01*
X5815025Y-6597497D01*
X5815025Y-6559702D01*
X5825032Y-6549694D01*
X5846114Y-6549694D01*
X5856122Y-6539687D01*
X5856122Y-6503568D01*
X5846114Y-6493560D01*
G37*
G36*
X6041085Y-6493560D02*
G01*
X6031077Y-6503568D01*
X6031077Y-6539687D01*
X6041085Y-6549694D01*
X6062167Y-6549694D01*
X6072174Y-6559702D01*
X6072174Y-6597497D01*
X6062167Y-6607505D01*
X6041085Y-6607505D01*
X6031077Y-6617512D01*
X6031077Y-6653631D01*
X6041085Y-6663639D01*
X6141872Y-6663639D01*
X6151829Y-6653631D01*
X6151829Y-6503568D01*
X6141872Y-6493560D01*
G37*
G36*
X6186068Y-3474770D02*
G01*
X6176060Y-3484727D01*
X6176060Y-3585514D01*
X6186068Y-3595522D01*
X6222187Y-3595522D01*
X6232194Y-3585514D01*
X6232194Y-3564432D01*
X6242202Y-3554425D01*
X6279997Y-3554425D01*
X6290005Y-3564432D01*
X6290005Y-3585514D01*
X6300012Y-3595522D01*
X6336131Y-3595522D01*
X6346139Y-3585514D01*
X6346139Y-3484727D01*
X6336131Y-3474770D01*
G37*
G36*
X6186068Y-3770477D02*
G01*
X6176060Y-3780485D01*
X6176060Y-3881272D01*
X6186068Y-3891229D01*
X6336131Y-3891229D01*
X6346139Y-3881272D01*
X6346139Y-3780485D01*
X6336131Y-3770477D01*
X6300012Y-3770477D01*
X6290005Y-3780485D01*
X6290005Y-3801567D01*
X6279997Y-3811574D01*
X6242202Y-3811574D01*
X6232194Y-3801567D01*
X6232194Y-3780485D01*
X6222187Y-3770477D01*
G37*
G36*
X5919368Y-4846370D02*
G01*
X5909360Y-4856327D01*
X5909360Y-4957114D01*
X5919368Y-4967122D01*
X5955487Y-4967122D01*
X5965494Y-4957114D01*
X5965494Y-4936032D01*
X5975502Y-4926025D01*
X6013297Y-4926025D01*
X6023305Y-4936032D01*
X6023305Y-4957114D01*
X6033312Y-4967122D01*
X6069431Y-4967122D01*
X6079439Y-4957114D01*
X6079439Y-4856327D01*
X6069431Y-4846370D01*
G37*
G36*
X5919368Y-5142077D02*
G01*
X5909360Y-5152085D01*
X5909360Y-5252872D01*
X5919368Y-5262829D01*
X6069431Y-5262829D01*
X6079439Y-5252872D01*
X6079439Y-5152085D01*
X6069431Y-5142077D01*
X6033312Y-5142077D01*
X6023305Y-5152085D01*
X6023305Y-5173167D01*
X6013297Y-5183174D01*
X5975502Y-5183174D01*
X5965494Y-5173167D01*
X5965494Y-5152085D01*
X5955487Y-5142077D01*
G37*
G36*
X5923127Y-5718860D02*
G01*
X5913170Y-5728868D01*
X5913170Y-5878931D01*
X5923127Y-5888939D01*
X6023914Y-5888939D01*
X6033922Y-5878931D01*
X6033922Y-5842812D01*
X6023914Y-5832805D01*
X6002832Y-5832805D01*
X5992825Y-5822797D01*
X5992825Y-5785002D01*
X6002832Y-5774994D01*
X6023914Y-5774994D01*
X6033922Y-5764987D01*
X6033922Y-5728868D01*
X6023914Y-5718860D01*
G37*
G36*
X6218885Y-5718860D02*
G01*
X6208877Y-5728868D01*
X6208877Y-5764987D01*
X6218885Y-5774994D01*
X6239967Y-5774994D01*
X6249974Y-5785002D01*
X6249974Y-5822797D01*
X6239967Y-5832805D01*
X6218885Y-5832805D01*
X6208877Y-5842812D01*
X6208877Y-5878931D01*
X6218885Y-5888939D01*
X6319672Y-5888939D01*
X6329629Y-5878931D01*
X6329629Y-5728868D01*
X6319672Y-5718860D01*
G37*
G36*
X4865268Y-4405477D02*
G01*
X4855260Y-4415485D01*
X4855260Y-4516272D01*
X4865268Y-4526229D01*
X5015331Y-4526229D01*
X5025339Y-4516272D01*
X5025339Y-4415485D01*
X5015331Y-4405477D01*
X4979212Y-4405477D01*
X4969205Y-4415485D01*
X4969205Y-4436567D01*
X4959197Y-4446574D01*
X4921402Y-4446574D01*
X4911394Y-4436567D01*
X4911394Y-4415485D01*
X4901387Y-4405477D01*
G37*
G36*
X4865268Y-4109770D02*
G01*
X4855260Y-4119727D01*
X4855260Y-4220514D01*
X4865268Y-4230522D01*
X4901387Y-4230522D01*
X4911394Y-4220514D01*
X4911394Y-4199432D01*
X4921402Y-4189425D01*
X4959197Y-4189425D01*
X4969205Y-4199432D01*
X4969205Y-4220514D01*
X4979212Y-4230522D01*
X5015331Y-4230522D01*
X5025339Y-4220514D01*
X5025339Y-4119727D01*
X5015331Y-4109770D01*
G37*
G36*
X5119268Y-5421477D02*
G01*
X5109260Y-5431485D01*
X5109260Y-5532272D01*
X5119268Y-5542229D01*
X5269331Y-5542229D01*
X5279339Y-5532272D01*
X5279339Y-5431485D01*
X5269331Y-5421477D01*
X5233212Y-5421477D01*
X5223205Y-5431485D01*
X5223205Y-5452567D01*
X5213197Y-5462574D01*
X5175402Y-5462574D01*
X5165394Y-5452567D01*
X5165394Y-5431485D01*
X5155387Y-5421477D01*
G37*
G36*
X5119268Y-5125770D02*
G01*
X5109260Y-5135727D01*
X5109260Y-5236514D01*
X5119268Y-5246522D01*
X5155387Y-5246522D01*
X5165394Y-5236514D01*
X5165394Y-5215432D01*
X5175402Y-5205425D01*
X5213197Y-5205425D01*
X5223205Y-5215432D01*
X5223205Y-5236514D01*
X5233212Y-5246522D01*
X5269331Y-5246522D01*
X5279339Y-5236514D01*
X5279339Y-5135727D01*
X5269331Y-5125770D01*
G37*
G36*
X4856327Y-5782360D02*
G01*
X4846370Y-5792368D01*
X4846370Y-5942431D01*
X4856327Y-5952439D01*
X4957114Y-5952439D01*
X4967122Y-5942431D01*
X4967122Y-5906312D01*
X4957114Y-5896305D01*
X4936032Y-5896305D01*
X4926025Y-5886297D01*
X4926025Y-5848502D01*
X4936032Y-5838494D01*
X4957114Y-5838494D01*
X4967122Y-5828487D01*
X4967122Y-5792368D01*
X4957114Y-5782360D01*
G37*
G36*
X5152085Y-5782360D02*
G01*
X5142077Y-5792368D01*
X5142077Y-5828487D01*
X5152085Y-5838494D01*
X5173167Y-5838494D01*
X5183174Y-5848502D01*
X5183174Y-5886297D01*
X5173167Y-5896305D01*
X5152085Y-5896305D01*
X5142077Y-5906312D01*
X5142077Y-5942431D01*
X5152085Y-5952439D01*
X5252872Y-5952439D01*
X5262829Y-5942431D01*
X5262829Y-5792368D01*
X5252872Y-5782360D01*
G37*
G36*
X4856327Y-6480860D02*
G01*
X4846370Y-6490868D01*
X4846370Y-6640931D01*
X4856327Y-6650939D01*
X4957114Y-6650939D01*
X4967122Y-6640931D01*
X4967122Y-6604812D01*
X4957114Y-6594805D01*
X4936032Y-6594805D01*
X4926025Y-6584797D01*
X4926025Y-6547002D01*
X4936032Y-6536994D01*
X4957114Y-6536994D01*
X4967122Y-6526987D01*
X4967122Y-6490868D01*
X4957114Y-6480860D01*
G37*
G36*
X5152085Y-6480860D02*
G01*
X5142077Y-6490868D01*
X5142077Y-6526987D01*
X5152085Y-6536994D01*
X5173167Y-6536994D01*
X5183174Y-6547002D01*
X5183174Y-6584797D01*
X5173167Y-6594805D01*
X5152085Y-6594805D01*
X5142077Y-6604812D01*
X5142077Y-6640931D01*
X5152085Y-6650939D01*
X5252872Y-6650939D01*
X5262829Y-6640931D01*
X5262829Y-6490868D01*
X5252872Y-6480860D01*
G37*
M02*
